<?xml version="1.0" encoding="UTF-8"?>
<svg version="1.1" xmlns="http://www.w3.org/2000/svg" width="1024" height="1024">
<path d="M0 0 C1.59358363 1.32106526 3.17708112 2.65439664 4.75 4 C5.54664063 4.67417969 6.34328125 5.34835938 7.1640625 6.04296875 C38.63199817 33.46502698 59.89360812 72.49892809 74.75 111 C74.98074219 110.44763672 75.21148437 109.89527344 75.44921875 109.32617188 C80.18282757 98.0347374 85.05374086 86.88946088 90.70654297 76.02636719 C91.79819908 73.90639861 92.85505599 71.77118659 93.91015625 69.6328125 C98.6519241 60.16441332 104.00652449 51.2538103 109.875 42.4375 C110.53177734 41.45072266 111.18855469 40.46394531 111.86523438 39.44726562 C131.90213598 9.84229312 157.81819513 -14.85970544 193.75 -22 C216.06887755 -25.87032559 239.18527321 -22.35012894 258.125 -9.625 C259.6882362 -8.44470421 261.23008242 -7.23557926 262.75 -6 C263.59046875 -5.32195312 264.4309375 -4.64390625 265.296875 -3.9453125 C280.32068303 8.84768767 290.27338745 27.83962959 291.97314453 47.59326172 C293.42174971 73.13684828 285.4978511 96.53294061 268.75 116 C267.73292969 117.21816406 267.73292969 117.21816406 266.6953125 118.4609375 C257.68831301 128.91961456 247.26792994 137.03147384 235.55078125 144.22265625 C232.74290154 145.86165538 232.74290154 145.86165538 230.75 148 C229.76 148.33 228.77 148.66 227.75 149 C228.3404586 149.00331015 228.93091721 149.00662029 229.53926849 149.01003075 C243.92928339 149.09137296 258.31919963 149.18350189 272.7090683 149.28752708 C279.66800251 149.33757551 286.6269254 149.38401906 293.5859375 149.421875 C300.30333025 149.45842681 307.02058213 149.50515833 313.73786926 149.55806351 C316.29903456 149.57657806 318.86022676 149.59169683 321.4214325 149.60334396 C325.0122053 149.62025639 328.60269223 149.64930434 332.19335938 149.68115234 C333.24928284 149.68331253 334.3052063 149.68547272 335.39312744 149.68769836 C347.24511939 149.82174523 356.98906426 152.78774199 365.85546875 160.8671875 C373.3629009 169.31885339 374.90531524 177.87613425 375.3046875 188.6953125 C375.34673309 189.8214798 375.38877869 190.94764709 375.43209839 192.10794067 C375.95348991 207.8942629 375.90063475 223.68885176 375.88037109 239.48193359 C375.87461374 244.01111777 375.87800835 248.54024343 375.88394356 253.06942558 C375.88757489 256.61272618 375.88639984 260.15601309 375.88381577 263.69931412 C375.88315676 265.36963025 375.88393826 267.0399477 375.88629532 268.7102623 C375.92213674 301.15303621 375.92213674 301.15303621 364.75 313 C358.65993533 318.35150812 351.75908463 320.92971692 343.75 322 C342.76 321.67 341.77 321.34 340.75 321 C340.75222061 322.31100677 340.75444122 323.62201355 340.75672913 324.9727478 C340.77696656 337.30425392 340.79197506 349.63575669 340.80181217 361.96727562 C340.80703946 368.30761785 340.81413434 374.64794671 340.82543945 380.98828125 C340.83627377 387.10256711 340.842278 393.21684008 340.84487724 399.3311348 C340.8467305 401.66841459 340.85034924 404.00569365 340.85573006 406.34296799 C340.86294767 409.6067535 340.86399063 412.87048519 340.86352539 416.13427734 C340.86712067 417.10891434 340.87071594 418.08355133 340.87442017 419.08772278 C340.8730455 419.97395828 340.87167084 420.86019379 340.87025452 421.77328491 C340.87117631 422.54574743 340.8720981 423.31820995 340.87304783 424.11408043 C340.75 426 340.75 426 339.75 428 C337.40324167 429.09808008 335.07665629 430.09191797 332.671875 431.046875 C331.94945618 431.34055969 331.22703735 431.63424438 330.48272705 431.93682861 C328.15769881 432.88099459 325.82914166 433.81603249 323.5 434.75 C321.21423355 435.67091228 318.92934633 436.59388841 316.64581299 437.52032471 C315.22563413 438.0960434 313.80416396 438.66859363 312.38104248 439.23699951 C305.70865807 441.93340805 299.3144202 444.9702676 292.75 448 C292.75 406.42 292.75 364.84 292.75 322 C215.035 321.505 215.035 321.505 135.75 321 C135.75 357.3 135.75 393.6 135.75 431 C126.53924288 431 117.38742526 430.86421072 108.1875 430.5625 C106.82226746 430.52272334 105.45703309 430.48300948 104.09179688 430.44335938 C102.80208984 430.40146484 101.51238281 430.35957031 100.18359375 430.31640625 C99.01884521 430.27974854 97.85409668 430.24309082 96.65405273 430.20532227 C93.75 430 93.75 430 90.75 429 C90.74761165 427.82163889 90.74522329 426.64327778 90.74276257 425.42920876 C90.68544792 397.48021472 90.61274971 369.53129368 90.52101372 341.58239076 C90.50974506 338.14509681 90.49860669 334.70780245 90.48754883 331.27050781 C90.4842433 330.24401857 90.4842433 330.24401857 90.480871 329.19679217 C90.44546336 318.10482902 90.42061883 307.01286594 90.39965298 295.92086716 C90.37791847 284.54610514 90.34466659 273.17142774 90.30129844 261.79672372 C90.27729622 255.4049121 90.25861342 249.01318216 90.25238609 242.62132645 C90.24636678 236.61150413 90.22648204 230.60189101 90.19572449 224.59214592 C90.18689341 222.38057212 90.18323206 220.16897103 90.18499184 217.95738029 C90.18663032 214.94941932 90.17006805 211.94210706 90.14872742 208.93423462 C90.15357499 208.04903314 90.15842257 207.16383167 90.16341704 206.2518059 C90.16776151 203.58510091 90.16776151 203.58510091 89.75 200 C81.11198028 194.24132019 69.12499307 197.37053547 58.75 197 C58.75 272.57 58.75 348.14 58.75 426 C54.46 425.34 50.17 424.68 45.75 424 C43.40574692 423.66109311 41.06086693 423.32642857 38.71484375 423 C37.55662109 422.835 36.39839844 422.67 35.20507812 422.5 C32.825561 422.16176769 30.44532327 421.82857292 28.06445312 421.5 C26.91783203 421.335 25.77121094 421.17 24.58984375 421 C23.56238037 420.855625 22.53491699 420.71125 21.47631836 420.5625 C18.75 420 18.75 420 14.75 418 C14.75 386.32 14.75 354.64 14.75 322 C-39.37 321.67 -93.49 321.34 -149.25 321 C-148.755 324.465 -148.755 324.465 -148.25 328 C-148.17185548 329.38964227 -148.124511 330.78177874 -148.12415886 332.17361641 C-148.12155111 332.92673233 -148.11894336 333.67984825 -148.11625659 334.45578587 C-148.11848732 335.26146815 -148.12071804 336.06715042 -148.12301636 336.89724731 C-148.12067637 338.20760777 -148.12067637 338.20760777 -148.11828911 339.54444015 C-148.11431209 342.46209854 -148.11745661 345.37970454 -148.12060547 348.29736328 C-148.11924944 350.39643891 -148.11746836 352.49551429 -148.11529541 354.59458923 C-148.11073001 360.30677194 -148.11251099 366.0189366 -148.1156745 371.73111963 C-148.11822061 377.77109479 -148.11585266 383.81106848 -148.11428833 389.8510437 C-148.11246567 400.05174024 -148.11486764 410.25242956 -148.11962891 420.453125 C-148.12440617 430.8043668 -148.12450749 441.15559418 -148.11962891 451.50683594 C-148.06857446 562.32111614 -148.06857446 562.32111614 -149.25 612 C-148.61793451 611.99815641 -147.98586903 611.99631283 -147.33465004 611.99441338 C-131.97044146 611.95028624 -116.60625486 611.91716877 -101.24199867 611.89637566 C-93.81202548 611.88605356 -86.38209452 611.87197547 -78.95214844 611.84912109 C-72.47784217 611.8292157 -66.00356649 611.81629036 -59.52923048 611.81182301 C-56.09963469 611.80921077 -52.67012642 611.80305168 -49.24055862 611.78853989 C-45.41637759 611.7724889 -41.59228297 611.77201848 -37.76806641 611.77294922 C-36.62511612 611.76575867 -35.48216583 611.75856812 -34.30458069 611.75115967 C-33.26689041 611.753909 -32.22920013 611.75665833 -31.1600647 611.75949097 C-30.25486399 611.75764738 -29.34966328 611.75580379 -28.41703224 611.75390434 C-26.25 612 -26.25 612 -24.25 614 C-23.63813854 615.75438949 -23.08446997 617.52929942 -22.5625 619.3125 C-18.11952929 632.91707089 -10.1689853 645.26671955 0.08203125 655.27734375 C1.75 657 1.75 657 1.75 659 C-19.32984275 659.04677493 -40.40967691 659.08201575 -61.48956108 659.10362434 C-71.27788913 659.11392543 -81.06618487 659.12796342 -90.85449219 659.15087891 C-99.38857614 659.17084855 -107.92263669 659.18372492 -116.45674336 659.18817699 C-120.97311305 659.19077832 -125.48941582 659.19686819 -130.00576401 659.21146011 C-134.2623634 659.22510054 -138.51886872 659.22920965 -142.7754879 659.22621536 C-144.33224818 659.22676265 -145.88901181 659.23070143 -147.4457531 659.23841095 C-161.33365134 659.3037773 -172.8604784 658.69521636 -183.515625 648.921875 C-190.31676572 641.71770372 -194.37711826 633.69398319 -194.37304783 623.71327591 C-194.37503888 622.63590927 -194.37702993 621.55854264 -194.37908131 620.44852853 C-194.37616847 619.26565877 -194.37325563 618.08278901 -194.37025452 616.86407471 C-194.37110894 615.60700643 -194.37196337 614.34993816 -194.37284368 613.05477691 C-194.37508233 609.56351966 -194.37107595 606.07229302 -194.36606562 602.58103967 C-194.36175229 598.8169303 -194.36320817 595.05282269 -194.3639679 591.28871155 C-194.36449257 584.76644735 -194.36135166 578.24419314 -194.35573006 571.72193146 C-194.34760742 562.29180429 -194.34499905 552.86168195 -194.34374207 543.43155167 C-194.34155275 528.13226217 -194.33489592 512.83297801 -194.32543945 497.53369141 C-194.31626223 482.67073595 -194.30918291 467.80778194 -194.30493164 452.94482422 C-194.30466892 452.02886747 -194.30440619 451.11291072 -194.30413551 450.16919771 C-194.30283048 445.57417038 -194.30156677 440.97914304 -194.30032361 436.3841157 C-194.28995474 398.2560734 -194.27233969 360.12803705 -194.25 322 C-195.38861481 321.80478256 -195.38861481 321.80478256 -196.55023193 321.60562134 C-197.54395813 321.43106415 -198.53768433 321.25650696 -199.56152344 321.07666016 C-200.54747498 320.9052652 -201.53342651 320.73387024 -202.54925537 320.55728149 C-210.84364092 318.84578774 -217.59349571 312.88050635 -222.25 306 C-225.37767316 300.64237557 -226.96008475 295.93195868 -227.4855957 289.76635742 C-227.56086392 288.99223857 -227.63613214 288.21811972 -227.71368122 287.42054272 C-228.53022971 278.20341469 -228.51996818 268.98374816 -228.48046875 259.73828125 C-228.4792716 257.84938082 -228.47882491 255.96047978 -228.4790802 254.07157898 C-228.47753108 250.14623186 -228.46936293 246.22097797 -228.45581055 242.2956543 C-228.43878798 237.3069196 -228.43499832 232.31828631 -228.43575573 227.32952595 C-228.43548171 223.44037438 -228.4299642 219.55124421 -228.42275429 215.66209984 C-228.41961144 213.82400867 -228.4176107 211.98591513 -228.41686058 210.14782143 C-228.38305227 170.64225087 -228.38305227 170.64225087 -218.25 160 C-214.16616211 156.35528446 -210.63331676 153.23686013 -205.25 152 C-204.08774902 151.65595123 -202.92549805 151.31190247 -201.72802734 150.95742798 C-196.38188785 149.63066995 -191.0835255 149.69226879 -185.6015625 149.68115234 C-184.45922653 149.67110672 -183.31689056 149.6610611 -182.13993835 149.65071106 C-178.38496376 149.619957 -174.63006022 149.60286532 -170.875 149.5859375 C-168.26325879 149.56721963 -165.65152359 149.54764575 -163.03979492 149.5272522 C-156.88125891 149.48060104 -150.72270561 149.44379118 -144.56408405 149.41057932 C-137.54825637 149.37226092 -130.53251996 149.32287647 -123.51676941 149.27259517 C-109.0945833 149.16947877 -94.67233179 149.08015285 -80.25 149 C-80.93031784 148.5941568 -81.61063568 148.1883136 -82.31156921 147.77017212 C-83.65527336 146.96668839 -83.65527336 146.96668839 -85.02612305 146.14697266 C-85.91269089 145.61737946 -86.79925873 145.08778625 -87.71269226 144.54214478 C-101.45079541 136.19229282 -114.05807137 125.92273339 -123.6640625 112.9609375 C-125.27814865 110.7659194 -125.27814865 110.7659194 -128.25 109 C-128.25 108.01 -128.25 107.02 -128.25 106 C-129.39926151 103.82070592 -129.39926151 103.82070592 -130.9375 101.5 C-143.34557592 81.27834798 -146.2352122 57.89591137 -140.75048828 34.90771484 C-135.77529539 15.94373571 -124.37165305 -0.75297649 -107.59667969 -11.02661133 C-72.2145813 -31.60175565 -31.36376551 -24.56257455 0 0 Z M-88.0078125 38.00390625 C-93.6585182 45.63372385 -95.08521742 54.22229949 -93.77734375 63.5390625 C-89.88523282 81.70224683 -75.42898017 94.53729282 -60.53515625 104.3046875 C-46.58159959 113.19830209 -31.73495539 119.27966889 -16.25 125 C-15.25967773 125.36786621 -14.26935547 125.73573242 -13.24902344 126.11474609 C-9.26874438 127.58078254 -5.37636631 129.00925113 -1.25 130 C0.49177052 130.50025911 2.23115026 131.0088786 3.96875 131.5234375 C4.98453125 131.8225 6.0003125 132.1215625 7.046875 132.4296875 C9.15142487 133.05078636 11.25560378 133.67314383 13.359375 134.296875 C20.44855176 136.38087922 27.56816094 138.26230302 34.75 140 C25.15672358 109.12767757 7.84519052 78.48412906 -13.25 54 C-13.94351563 53.16082031 -14.63703125 52.32164062 -15.3515625 51.45703125 C-25.20217666 39.90494737 -38.66789488 28.72336646 -54.25 27 C-67.59001108 26.12216143 -78.8508564 27.5649763 -88.0078125 38.00390625 Z M167.75 46 C167.75 46.66 167.75 47.32 167.75 48 C166.93015625 48.29583984 166.93015625 48.29583984 166.09375 48.59765625 C162.75657736 50.59439788 160.62311085 53.42236751 158.25 56.4375 C157.72809082 57.09709717 157.20618164 57.75669434 156.66845703 58.4362793 C150.38469628 66.54566368 144.98677182 75.18930026 139.75 84 C139.32509277 84.71462402 138.90018555 85.42924805 138.46240234 86.16552734 C130.34272846 99.98152417 123.53270934 114.4945216 116.75 129 C116.10369629 130.35520752 116.10369629 130.35520752 115.44433594 131.73779297 C115.06825195 132.54490723 114.69216797 133.35202148 114.3046875 134.18359375 C113.97710449 134.8789624 113.64952148 135.57433105 113.31201172 136.29077148 C112.49948249 138.08581373 112.49948249 138.08581373 113.75 140 C155.30828393 132.95358856 207.47968326 120.36413486 234.1484375 84.46875 C241.57975699 73.01364288 244.2709019 62.53699153 242.75 49 C240.16432744 40.30956525 234.51419385 34.59655305 226.828125 30.0703125 C207.17757979 19.94954298 181.55356633 30.83699153 167.75 46 Z M-180.25 197 C-188.15639685 220.71919054 -181.25 246.99777788 -181.25 272 C-116.24 272 -51.23 272 15.75 272 C20.84066683 233.18022259 20.84066683 233.18022259 14.75 197 C-49.6 197 -113.95 197 -180.25 197 Z M135.75 197 C135.75 221.75 135.75 246.5 135.75 272 C199.77 272 263.79 272 329.75 272 C330.60323559 267.73382207 330.87128529 264.31333436 330.86352539 260.0065918 C330.86374443 258.98137169 330.86374443 258.98137169 330.8639679 257.93544006 C330.86327462 255.68999999 330.85550974 253.44464423 330.84765625 251.19921875 C330.84578999 249.63694809 330.84436707 248.07467685 330.84336853 246.5124054 C330.83955972 242.41069916 330.82974346 238.30902861 330.81866455 234.20733643 C330.8084152 230.01778649 330.80386337 225.82823075 330.79882812 221.63867188 C330.78811967 213.42576491 330.77106297 205.2128869 330.75 197 C329.43677261 197 328.12354523 197 326.77052307 197 C263.09701538 197 199.42350769 197 135.75 197 Z " fill="#D57C61" transform="translate(377.25,152)"/>
<path d="M0 0 C9.59348748 8.57290371 9.61445548 22.62349255 10.34965515 34.62272644 C11.05278006 47.25202219 11.12361953 59.87374246 11.12280273 72.52026367 C11.12498639 76.28901525 11.14320819 80.05747181 11.16210938 83.82617188 C11.26456129 128.09209655 6.47905922 175.69374469 -14.0625 215.625 C-14.78695436 217.10392379 -15.51086949 218.58311179 -16.234375 220.0625 C-32.85195973 253.43637488 -60.90412718 281.0037926 -96.47412109 293.47021484 C-133.59519881 305.32125401 -168.76635365 300.83132305 -204.125 286.02734375 C-220.13802317 279.39861052 -237.28585553 274.83155471 -254.0625 281.625 C-262.26589242 285.33077959 -269.25608324 290.11410752 -276.40527344 295.49707031 C-282.66273184 300.16849257 -289.14266372 303.99922179 -296.0625 307.625 C-297.20847656 308.23085938 -298.35445312 308.83671875 -299.53515625 309.4609375 C-309.8980601 314.72354984 -320.80856216 317.85365487 -332.0625 320.625 C-332.78131348 320.80579102 -333.50012695 320.98658203 -334.24072266 321.17285156 C-369.21529317 329.64082218 -408.19592822 320.95258035 -438.73828125 302.7734375 C-444.47615268 299.06505996 -449.80275096 294.97053308 -455.0625 290.625 C-455.66739258 290.12838867 -456.27228516 289.63177734 -456.89550781 289.12011719 C-468.69309734 279.3668753 -479.0652364 268.93372514 -488.1875 256.625 C-488.64930664 256.00189941 -489.11111328 255.37879883 -489.58691406 254.73681641 C-491.92458583 251.49102874 -493.78229321 248.42246734 -495.0625 244.625 C-495.7225 244.625 -496.3825 244.625 -497.0625 244.625 C-498.0525 242.315 -499.0425 240.005 -500.0625 237.625 C-500.7225 237.955 -501.3825 238.285 -502.0625 238.625 C-503.0625 235.625 -503.0625 235.625 -503.0625 232.625 C-503.83662548 230.66787993 -503.83662548 230.66787993 -504.93359375 228.58203125 C-505.33860107 227.76822998 -505.7436084 226.95442871 -506.16088867 226.1159668 C-506.60279541 225.23207275 -507.04470215 224.34817871 -507.5 223.4375 C-523.41241291 190.72407734 -532.27914128 155.4368344 -537.875 119.625 C-537.98032043 118.95227051 -538.08564087 118.27954102 -538.19415283 117.58642578 C-539.96049967 106.19172265 -541.24066395 94.90998889 -541.375 83.375 C-541.40400391 82.529375 -541.43300781 81.68375 -541.46289062 80.8125 C-541.52274066 74.88274306 -540.53185391 71.47078237 -537.0625 66.625 C-532.6372294 63.57648025 -529.34546272 63.3215578 -524.0625 63.625 C-521.41008884 64.34282803 -518.92089922 65.11107814 -516.34765625 66.0390625 C-514.85478303 66.55531085 -513.36186119 67.07141863 -511.86889648 67.58740234 C-510.70836258 67.99499786 -510.70836258 67.99499786 -509.52438354 68.41082764 C-473.99320569 80.83767892 -438.11786202 86.66423074 -400.85546875 91.06637573 C-356.38740186 96.33509392 -312.12100149 104.9882842 -278.30078125 136.5390625 C-276.20795634 138.48944383 -274.05951459 140.34131367 -271.875 142.1875 C-267.86997277 145.67574952 -264.45519084 149.54883017 -261.0625 153.625 C-260.55203125 154.23214844 -260.0415625 154.83929687 -259.515625 155.46484375 C-258.35837819 156.8463884 -257.20938247 158.23483943 -256.0625 159.625 C-253.47143194 156.46141804 -251.04878683 153.22460316 -248.71411133 149.86767578 C-243.26612711 142.04790676 -237.31765036 134.8068393 -231.0625 127.625 C-230.4128125 126.8515625 -229.763125 126.078125 -229.09375 125.28125 C-201.91911886 93.16577684 -159.78518901 76.3983542 -121.18798828 62.99026489 C-84.16493734 50.10480141 -48.77275236 35.57600701 -22.73046875 5.25390625 C-15.88231586 -1.49398086 -9.02700768 -4.05294222 0 0 Z M-179.58984375 171.3671875 C-189.36853202 182.72794398 -196.67402941 195.1085574 -203.0625 208.625 C-181.54244316 222.20924412 -157.16596415 229.41880255 -131.75 224.4375 C-107.60897103 218.40918782 -89.1946052 204.38200312 -76.17578125 183.27734375 C-67.93675526 169.31544549 -60.80332019 152.047575 -61.0625 135.625 C-105.55220762 128.68510132 -148.20018492 137.30916509 -179.58984375 171.3671875 Z M-448.0625 173.625 C-438.3004309 201.03388632 -422.83698588 226.32968222 -395.75 239.375 C-389.04982092 242.47370586 -382.34930298 244.3721109 -375.0625 245.625 C-373.78375 245.851875 -372.505 246.07875 -371.1875 246.3125 C-346.07214646 248.85047257 -322.75860771 242.39361004 -303.0625 226.625 C-300.00355042 224.01955748 -297.00714282 221.35879185 -294.0625 218.625 C-294.67153059 215.53194578 -295.66118803 213.42860238 -297.5 210.875 C-297.93183594 210.26140625 -298.36367188 209.6478125 -298.80859375 209.015625 C-299.22238281 208.55671875 -299.63617187 208.0978125 -300.0625 207.625 C-300.7225 207.625 -301.3825 207.625 -302.0625 207.625 C-302.33473389 207.02969482 -302.60696777 206.43438965 -302.88745117 205.82104492 C-312.4575116 187.9355902 -336.57359068 175.70151583 -355.125 169.75 C-382.24987598 161.71143337 -421.66351005 161.7982525 -448.0625 173.625 Z " fill="#D57C62" transform="translate(881.0625,527.375)"/>
<path d="M0 0 C0.66 0 1.32 0 2 0 C2.53625 0.845625 3.0725 1.69125 3.625 2.5625 C7.74926114 9.03253049 13.73426738 13.61984621 21 16 C22.73787293 16.37845897 24.48049368 16.73557856 26.2265625 17.07421875 C27.12197754 17.24912842 28.01739258 17.42403809 28.93994141 17.60424805 C29.61976074 17.73484619 30.29958008 17.86544434 31 18 C31.00135653 18.64406923 31.00271306 19.28813846 31.00411069 19.95172495 C31.08477334 58.13057703 31.1757331 96.3093917 31.28005161 134.48818674 C31.29257037 139.0730976 31.30500316 143.65800869 31.31738281 148.24291992 C31.3210818 149.61207091 31.3210818 149.61207091 31.32485552 151.00888152 C31.36457143 165.78527096 31.39732394 180.56166803 31.42749982 195.33807968 C31.45862172 210.50178248 31.49723431 225.66545289 31.54279006 240.82911927 C31.57066106 250.18472952 31.59270013 259.54031611 31.60726251 268.8959567 C31.61781046 275.31281252 31.63563913 281.72962247 31.65916704 288.14644372 C31.67252399 291.84773364 31.68269574 295.54895934 31.68421364 299.25027466 C31.68594507 303.26718872 31.70302067 307.28389422 31.7215271 311.30076599 C31.71959237 312.4651806 31.71765763 313.6295952 31.71566427 314.8292951 C31.79274811 326.02030949 33.3180669 336.18253523 41.125 344.6875 C45.17792414 348.53733644 49.91741173 350.78084174 55 353 C55 353.33 55 353.66 55 354 C46.9776149 353.66573395 42.07066802 349.43703799 36.75 343.6875 C31.57369752 337.34053511 28.87363271 329.85259486 28.87695217 321.71327591 C28.87496112 320.63590927 28.87297007 319.55854264 28.87091869 318.44852853 C28.87383153 317.26565877 28.87674437 316.08278901 28.87974548 314.86407471 C28.87889106 313.60700643 28.87803663 312.34993816 28.87715632 311.05477691 C28.87491767 307.56351966 28.87892405 304.07229302 28.88393438 300.58103967 C28.88824771 296.8169303 28.88679183 293.05282269 28.8860321 289.28871155 C28.88550743 282.76644735 28.88864834 276.24419314 28.89426994 269.72193146 C28.90239258 260.29180429 28.90500095 250.86168195 28.90625793 241.43155167 C28.90844725 226.13226217 28.91510408 210.83297801 28.92456055 195.53369141 C28.93373777 180.67073595 28.94081709 165.80778194 28.94506836 150.94482422 C28.94546244 149.5708891 28.94546244 149.5708891 28.94586449 148.16919771 C28.94716952 143.57417038 28.94843323 138.97914304 28.94967639 134.3841157 C28.96004526 96.2560734 28.97766031 58.12803705 29 20 C28.24092346 19.86985504 27.48184692 19.73971008 26.69976807 19.60562134 C25.70604187 19.43106415 24.71231567 19.25650696 23.68847656 19.07666016 C22.70252502 18.9052652 21.71657349 18.73387024 20.70074463 18.55728149 C12.47867379 16.86070942 5.56398949 10.89483427 1 4 C0.31640625 1.7578125 0.31640625 1.7578125 0 0 Z " fill="#CA6448" transform="translate(154,454)"/>
<path d="M0 0 C0.04630347 9.8573371 0.08185907 19.7146484 0.10362434 29.57207203 C0.11406962 34.14907988 0.12824237 38.72601343 0.15087891 43.30297852 C0.17258079 47.71850504 0.18456302 52.13396001 0.18975449 56.54953575 C0.19345502 58.23567519 0.20068108 59.92181064 0.21146011 61.60791969 C0.22593983 63.96632024 0.22797943 66.32442362 0.22705078 68.68286133 C0.23424133 69.38273163 0.24143188 70.08260193 0.24884033 70.80368042 C0.23330228 74.44103565 0.07949842 75.88075238 -2 79 C-4.47831071 79.29472626 -6.70740947 79.39145634 -9.18789673 79.36076355 C-9.93689566 79.36332682 -10.68589459 79.3658901 -11.45759046 79.36853105 C-13.98056866 79.37349319 -16.50295536 79.35693654 -19.02587891 79.34057617 C-20.8291065 79.33973042 -22.63233514 79.34020402 -24.43556213 79.34190369 C-29.34240181 79.3427671 -34.24902304 79.32508547 -39.15581179 79.30418181 C-44.27943099 79.28547255 -49.40305479 79.28366912 -54.52670288 79.28010559 C-64.2342014 79.27076818 -73.94159898 79.24613149 -83.64905298 79.21605712 C-94.69845171 79.18256582 -105.74785517 79.16604038 -116.79729199 79.15097082 C-139.53158403 79.11958338 -162.26578637 79.06678999 -185 79 C-185 78.67 -185 78.34 -185 78 C-191.93 77.505 -191.93 77.505 -199 77 C-199 76.67 -199 76.34 -199 76 C-133.99 76 -68.98 76 -2 76 C-2.33 51.91 -2.66 27.82 -3 3 C-3 2.34 -3 1.68 -3 1 C-26.43 1 -49.86 1 -74 1 C-74.33 1.66 -74.66 2.32 -75 3 C-75 2.34 -75 1.68 -75 1 C-115.59 1 -156.18 1 -198 1 C-198.33 1.99 -198.66 2.98 -199 4 C-199 2.68 -199 1.36 -199 0 C-173.34896441 -0.1537765 -147.6979013 -0.30181312 -122.04679298 -0.4429636 C-110.13729753 -0.50863276 -98.22781842 -0.57620021 -86.31835938 -0.64819336 C-75.94148173 -0.71091723 -65.56459109 -0.77012342 -55.18766916 -0.82505554 C-49.69011243 -0.85428203 -44.19257872 -0.88530383 -38.69505692 -0.92053413 C-33.52582138 -0.95360518 -28.35658176 -0.98199033 -23.18729973 -1.00670624 C-21.2853121 -1.01664002 -19.38333269 -1.02831878 -17.48136711 -1.04183006 C-14.89404063 -1.05995485 -12.30675833 -1.07192689 -9.71939087 -1.08229065 C-8.57835417 -1.09249633 -8.57835417 -1.09249633 -7.41426623 -1.10290819 C-2.22824242 -1.11412121 -2.22824242 -1.11412121 0 0 Z " fill="#DF896D" transform="translate(395,348)"/>
<path d="M0 0 C0.66 0 1.32 0 2 0 C2.02335664 15.57697085 2.04099278 31.15393852 2.05181217 46.7309227 C2.05696924 53.96352473 2.06400075 61.19611589 2.07543945 68.42871094 C2.08540425 74.73237117 2.09185772 81.03602352 2.09408849 87.3396914 C2.09539254 90.67766535 2.09898273 94.01559892 2.10573006 97.35356903 C2.11296304 101.0791509 2.11398998 104.8046857 2.11352539 108.53027344 C2.11712067 109.63798096 2.12071594 110.74568848 2.12442017 111.88696289 C2.1230455 112.90216003 2.12167084 113.91735718 2.12025452 114.96331787 C2.12163721 116.28516901 2.12163721 116.28516901 2.12304783 117.63372421 C2.00564542 119.89143557 1.63252586 121.83559051 1 124 C1.66829834 123.70343506 2.33659668 123.40687012 3.02514648 123.10131836 C6.16158527 121.71108252 9.29953807 120.32429427 12.4375 118.9375 C13.48744141 118.47150391 14.53738281 118.00550781 15.61914062 117.52539062 C22.02694215 114.69672148 28.46508225 111.96415232 34.94555664 109.30688477 C36.11354168 108.82699474 36.11354168 108.82699474 37.30512238 108.33740997 C39.20316422 107.55766279 41.10154656 106.77874454 43 106 C43.01030746 104.7855722 43.02061493 103.57114441 43.03123474 102.31991577 C43.12901005 90.87257428 43.23174808 79.42528663 43.33933926 67.97803307 C43.39449292 62.09295876 43.4479008 56.20787943 43.49731445 50.32275391 C43.5450695 44.64282599 43.59741624 38.96295722 43.65294075 33.28310013 C43.67331386 31.11660867 43.69203514 28.95010103 43.70907402 26.78358078 C43.73322984 23.74807644 43.76326895 20.71268286 43.79467773 17.67724609 C43.8004332 16.78244537 43.80618866 15.88764465 43.81211853 14.96572876 C43.86417089 10.53710151 44.11326667 6.35964952 45 2 C45.33 2 45.66 2 46 2 C46 36.98 46 71.96 46 108 C34.78 112.62 23.56 117.24 12 122 C7.71 123.98 3.42 125.96 -1 128 C-1.02316199 112.19680183 -1.04100132 96.39360968 -1.05181217 80.59039879 C-1.05696555 73.25248003 -1.06399001 65.91457202 -1.07543945 58.57666016 C-1.08541555 52.1799572 -1.0918604 45.78326202 -1.09408849 39.3865515 C-1.09539063 36.00045217 -1.09844501 32.61437511 -1.10573006 29.22828293 C-1.11298021 25.44563217 -1.11398925 21.66302767 -1.11352539 17.88037109 C-1.11712067 16.76115265 -1.12071594 15.6419342 -1.12442017 14.48880005 C-1.11785737 9.54867705 -1.0596121 4.85296636 0 0 Z " fill="#CD6448" transform="translate(671,472)"/>
<path d="M0 0 C52.47 0 104.94 0 159 0 C158.67 0.99 158.34 1.98 158 3 C106.52 2.67 55.04 2.34 2 2 C2 38.3 2 74.6 2 112 C-1.96 112 -5.92 112 -10 112 C-10.33 111.34 -10.66 110.68 -11 110 C-7.37 110 -3.74 110 0 110 C0 73.7 0 37.4 0 0 Z " fill="#C85F44" transform="translate(511,471)"/>
<path d="M0 0 C1.63597137 -0.00503792 1.63597137 -0.00503792 3.30499268 -0.01017761 C6.87716842 -0.01960769 10.449297 -0.0216259 14.02148438 -0.02270508 C16.51346862 -0.02592033 19.00545267 -0.02928461 21.49743652 -0.03279114 C26.70207152 -0.0387604 31.90668995 -0.04063302 37.11132812 -0.04003906 C42.46162512 -0.03995728 47.81183201 -0.04661242 53.16210938 -0.06054688 C59.63158097 -0.07715639 66.10098797 -0.08409701 72.57048035 -0.08342934 C75.03615179 -0.08461237 77.50182384 -0.0890521 79.96748352 -0.0967617 C83.40027421 -0.10650077 86.83283098 -0.10370906 90.265625 -0.09765625 C91.29000671 -0.10327576 92.31438843 -0.10889526 93.36981201 -0.11468506 C94.76583649 -0.10839333 94.76583649 -0.10839333 96.19006348 -0.10197449 C97.00115822 -0.10251925 97.81225296 -0.10306402 98.64792633 -0.1036253 C100.61523438 0.14526367 100.61523438 0.14526367 102.61523438 2.14526367 C102.74023438 5.77026367 102.74023438 5.77026367 102.61523438 9.14526367 C100.61523438 6.14526367 100.61523438 6.14526367 100.61523438 3.14526367 C100.00470561 3.14710726 99.39417685 3.14895084 98.76514721 3.1508503 C83.91799614 3.19499554 69.07085139 3.22810377 54.22365093 3.24888802 C47.0436893 3.25920596 39.86377143 3.27327616 32.68383789 3.29614258 C26.42669881 3.31606063 20.16959143 3.32897634 13.91242152 3.33344066 C10.59848222 3.33605075 7.2846549 3.34324037 3.97073936 3.35672379 C0.27365034 3.3711724 -3.42324877 3.37324438 -7.12036133 3.37231445 C-8.22231339 3.379505 -9.32426544 3.38669556 -10.45960999 3.394104 C-11.46501831 3.39135468 -12.47042664 3.38860535 -13.50630188 3.38577271 C-14.38108342 3.38761629 -15.25586496 3.38945988 -16.15715504 3.39135933 C-18.38476562 3.14526367 -18.38476562 3.14526367 -21.38476562 1.14526367 C-14.23522923 0.29062933 -7.1967258 -0.00323497 0 0 Z " fill="#CE6C50" transform="translate(250.384765625,763.854736328125)"/>
<path d="M0 0 C2.2107453 4.0330921 2.44801802 7.68685284 2.6171875 12.21484375 C2.65472137 13.10719223 2.69225525 13.99954071 2.73092651 14.91893005 C3.27133072 29.97026436 3.14937361 45.04606564 3.13037109 60.10473633 C3.12463594 64.67329924 3.12799081 69.24180386 3.13394356 73.81036472 C3.13757686 77.37512137 3.13639858 80.93986443 3.13381577 84.50462151 C3.13315616 86.18889307 3.13394047 87.87316594 3.13629532 89.55743599 C3.17139657 121.6556068 3.17139657 121.6556068 -8 134 C-9.9375 135.7890625 -9.9375 135.7890625 -12 137 C-14.25 136.6875 -14.25 136.6875 -16 136 C-15.48050781 135.6596875 -14.96101562 135.319375 -14.42578125 134.96875 C-7.28472849 130.00565233 -3.25763161 124.43488952 -1 116 C-0.69063463 112.22449579 -0.68884667 108.4570961 -0.68115234 104.67041016 C-0.67110672 103.53811981 -0.6610611 102.40582947 -0.65071106 101.23922729 C-0.61988134 97.50584407 -0.60284421 93.77253257 -0.5859375 90.0390625 C-0.56722572 87.44688297 -0.5476523 84.85470952 -0.5272522 82.26254272 C-0.48116903 76.14288944 -0.44376041 70.02323975 -0.41057932 63.90350473 C-0.37230308 56.93367102 -0.32290742 49.96392984 -0.27259517 42.99417424 C-0.16939054 28.66285267 -0.080093 14.33146844 0 0 Z " fill="#CA6145" transform="translate(750,331)"/>
<path d="M0 0 C16.51636051 -0.11703002 33.03258561 -0.20508399 49.54926109 -0.25906086 C57.21901726 -0.28479437 64.88851514 -0.3198512 72.55810547 -0.37719727 C79.24637109 -0.42718187 85.93444956 -0.45932627 92.62289679 -0.47044247 C96.16137412 -0.47693601 99.69931626 -0.49209412 103.23762131 -0.52865028 C107.19676155 -0.56921895 111.15538799 -0.56993979 115.11474609 -0.56762695 C116.27568787 -0.58560333 117.43662964 -0.60357971 118.63275146 -0.62210083 C128.03613219 -0.56284622 135.4637782 2.21637151 142.5625 8.5 C143.20316406 9.0465625 143.84382812 9.593125 144.50390625 10.15625 C146.32163209 12.39637166 146.64619944 14.16959556 147 17 C146.34 16.29875 145.68 15.5975 145 14.875 C135.62686207 5.55481766 127.63579221 2.55146747 114.54711914 2.56762695 C112.68753067 2.55233948 112.68753067 2.55233948 110.79037476 2.53674316 C107.40853924 2.51180875 104.02713737 2.49990263 100.6452477 2.49388909 C97.10444997 2.48447896 93.56377655 2.45827354 90.02305603 2.43388367 C83.3261545 2.39028729 76.6292772 2.36169831 69.93227714 2.33856028 C62.30461862 2.31147169 54.67708557 2.26756253 47.0495168 2.22227156 C31.36640912 2.12952365 15.68327779 2.05779796 0 2 C0 1.34 0 0.68 0 0 Z " fill="#CA6246" transform="translate(599,303)"/>
<path d="M0 0 C16.38207943 1.9875317 35.79579 24.45658786 45.375 36.625 C46.79333688 38.46207691 48.20083981 40.30668616 49.6015625 42.15722656 C50.95089127 43.93528759 52.31818813 45.69824875 53.6875 47.4609375 C68.05191917 66.21135895 93 99.59971309 93 124 C92.34 124 91.68 124 91 124 C90.72027344 123.16412354 90.44054687 122.32824707 90.15234375 121.46704102 C86.9994111 112.31681988 83.24432622 103.63024571 79 94.9375 C78.67529724 94.26834564 78.35059448 93.59919128 78.01605225 92.90975952 C69.89758098 76.23741267 60.53246695 60.55287496 49 46 C48.4328125 45.24203125 47.865625 44.4840625 47.28125 43.703125 C42.29398494 37.06912148 36.68018985 31.03626145 31 25 C30.40445312 24.3503125 29.80890625 23.700625 29.1953125 23.03125 C21.35029873 14.75690712 11.65381019 8.16101188 1.94921875 2.27734375 C1.30597656 1.85582031 0.66273438 1.43429688 0 1 C0 0.67 0 0.34 0 0 Z " fill="#CE6749" transform="translate(358,141)"/>
<path d="M0 0 C-0.65484375 0.3403125 -1.3096875 0.680625 -1.984375 1.03125 C-46.67791609 24.76680289 -69.46581446 66.12857553 -91 110 C-92.19561928 106.27755128 -91.59064894 104.52242734 -89.8046875 101.02929688 C-89.45664062 100.38025391 -89.10859375 99.73121094 -88.75 99.0625 C-88.38648438 98.36576172 -88.02296875 97.66902344 -87.6484375 96.95117188 C-86.85394904 95.43017971 -86.05491786 93.91155396 -85.25195312 92.39501953 C-83.99281171 89.9862486 -82.78145196 87.55816886 -81.578125 85.12109375 C-64.85134028 51.64816087 -41.35094311 18.76111326 -7.7890625 0.64453125 C-7.1595166 0.30397705 -6.5299707 -0.03657715 -5.88134766 -0.38745117 C-3.56324421 -1.14220351 -2.27339639 -0.7772107 0 0 Z " fill="#D0684A" transform="translate(552,138)"/>
<path d="M0 0 C0.33 0 0.66 0 1 0 C1.00423194 0.5904586 1.00846388 1.18091721 1.01282406 1.78926849 C1.11628348 16.17924475 1.22494357 30.56917486 1.33933926 44.9590683 C1.39453646 51.91800821 1.44799566 58.87695324 1.49731445 65.8359375 C1.5449257 72.55328622 1.59744499 79.27058029 1.65294075 85.98786926 C1.67330126 88.54904443 1.69202453 91.11023315 1.70907402 93.6714325 C1.73325792 97.26212455 1.76329296 100.85272403 1.79467773 104.44335938 C1.8004332 105.49928284 1.80618866 106.5552063 1.81211853 107.64312744 C1.86705434 113.18248823 2.18537072 118.51909395 3 124 C0.25860225 122.06900914 -0.03436082 120.83265242 -0.72236633 117.4818573 C-0.88952267 116.01602065 -1.03852234 114.5480437 -1.1730957 113.07885742 C-1.25287564 112.28217998 -1.33265558 111.48550253 -1.4148531 110.66468334 C-2.26717125 101.36259775 -2.27034189 92.07122199 -2.23046875 82.73828125 C-2.2292716 80.84938082 -2.22882491 78.96047978 -2.2290802 77.07157898 C-2.22753108 73.14623186 -2.21936293 69.22097797 -2.20581055 65.2956543 C-2.18878798 60.3069196 -2.18499832 55.31828631 -2.18575573 50.32952595 C-2.18548171 46.44037438 -2.1799642 42.55124421 -2.17275429 38.66209984 C-2.16961144 36.82400867 -2.1676107 34.98591513 -2.16686058 33.14782143 C-2.1403248 2.1403248 -2.1403248 2.1403248 0 0 Z " fill="#C86145" transform="translate(151,329)"/>
<path d="M0 0 C3.81936528 1.55603771 6.26044438 3.95604931 9 7 C9 7.66 9 8.32 9 9 C-7.68305 9.02351649 -24.3660945 9.04107019 -41.04915714 9.05181217 C-48.79799521 9.05693575 -56.5468229 9.0639019 -64.2956543 9.07543945 C-71.06131878 9.08550819 -77.82697573 9.09188194 -84.59264749 9.09408849 C-88.16428877 9.09537525 -91.73590853 9.09832819 -95.3075428 9.10573006 C-111.89920042 9.13881964 -128.43036531 8.90440189 -145 8 C-145 7.67 -145 7.34 -145 7 C-138.05207999 5.69779661 -131.12709881 5.8671588 -124.07836914 5.88647461 C-122.66848757 5.88675699 -121.25860585 5.88659775 -119.84872437 5.8860321 C-116.03726397 5.88574613 -112.22583527 5.89161051 -108.41438222 5.89860606 C-104.42521785 5.90487291 -100.43605269 5.90544603 -96.44688416 5.90663147 C-88.89996766 5.90973498 -81.35306572 5.91793512 -73.80615562 5.92798096 C-65.21123743 5.93917258 -56.61631852 5.94466022 -48.02139485 5.94967639 C-30.34758833 5.96011857 -12.67379534 5.97769899 5 6 C2.525 3.03 2.525 3.03 0 0 Z " fill="#C75E42" transform="translate(370,802)"/>
<path d="M0 0 C0.66 0 1.32 0 2 0 C2.10919618 22.45801374 1.79901156 44.91253212 1.53643799 67.36853027 C1.47511157 72.63890457 1.41536436 77.90929678 1.35546875 83.1796875 C1.2384906 93.45314271 1.11981229 103.72657748 1 114 C-1 112 -1 112 -1.24888897 110.11522293 C-1.2483442 109.34317898 -1.24779943 108.57113503 -1.24723816 107.7756958 C-1.25143265 106.8897171 -1.25562714 106.0037384 -1.25994873 105.09091187 C-1.25432922 104.1163504 -1.24870972 103.14178894 -1.24291992 102.13769531 C-1.24481827 101.11316254 -1.24671661 100.08862976 -1.24867249 99.03305054 C-1.25239014 95.6313319 -1.24165911 92.22982481 -1.23046875 88.828125 C-1.22927703 86.46881129 -1.22882377 84.1094971 -1.2290802 81.75018311 C-1.22751344 76.796967 -1.2192113 71.84382297 -1.20581055 66.890625 C-1.18885761 60.54413526 -1.18499509 54.19772509 -1.18575573 47.85121536 C-1.18548356 42.97502891 -1.17999418 38.09885981 -1.17275429 33.22267914 C-1.1695732 30.88312664 -1.16760152 28.54357218 -1.16686058 26.20401764 C-1.16468901 22.92927211 -1.1559259 19.65461031 -1.14526367 16.37988281 C-1.14571686 15.41341827 -1.14617004 14.44695374 -1.14663696 13.45120239 C-1.12478363 8.853746 -0.94436428 4.52301558 0 0 Z " fill="#D16C50" transform="translate(671,472)"/>
<path d="M0 0 C0.33 0 0.66 0 1 0 C1 31.35 1 62.7 1 95 C0.34 95 -0.32 95 -1 95 C-2.07299857 90.63896934 -2.14797099 86.38769608 -2.14526367 81.92431641 C-2.14862228 81.12528397 -2.1519809 80.32625153 -2.15544128 79.50300598 C-2.1649176 76.86917555 -2.16689271 74.23540891 -2.16796875 71.6015625 C-2.17118357 69.76459731 -2.17454781 67.92763238 -2.17805481 66.09066772 C-2.18403772 62.24240526 -2.18589556 58.39416523 -2.18530273 54.54589844 C-2.18520114 49.62434856 -2.19885393 44.70294306 -2.21607494 39.78142738 C-2.22721456 35.98779647 -2.22922134 32.19420025 -2.22869301 28.40055466 C-2.22987014 26.5865466 -2.2342769 24.77253757 -2.24202538 22.95854568 C-2.25186517 20.41708624 -2.24893158 17.87593752 -2.24291992 15.33447266 C-2.24853943 14.59138351 -2.25415894 13.84829437 -2.25994873 13.08268738 C-2.23144914 8.32127131 -1.47871289 4.47314028 0 0 Z " fill="#C55C40" transform="translate(394,473)"/>
<path d="M0 0 C-0.5576001 0.28085449 -1.1152002 0.56170898 -1.68969727 0.85107422 C-16.86176387 8.53451421 -31.13279644 16.57319095 -44.14453125 27.6015625 C-46 29 -46 29 -48 29 C-48 29.66 -48 30.32 -48 31 C-49.609375 32.33203125 -49.609375 32.33203125 -51.75 33.8125 C-55.11346694 36.24791016 -57.51001217 38.65139567 -60 42 C-63.7591486 45.96234582 -67.82068915 49.49516007 -72 53 C-68.91941409 43.6228319 -59.49548925 36.07020097 -52 30 C-50.98292969 29.16855469 -49.96585938 28.33710937 -48.91796875 27.48046875 C-37.53388553 18.28669946 -25.69667561 10.2644816 -12.8125 3.3125 C-11.99821533 2.86575928 -11.18393066 2.41901855 -10.3449707 1.95874023 C-9.19387817 1.35461304 -9.19387817 1.35461304 -8.01953125 0.73828125 C-7.33995361 0.37774658 -6.66037598 0.01721191 -5.96020508 -0.35424805 C-3.59113385 -1.13469311 -2.32254676 -0.80833576 0 0 Z " fill="#D0684A" transform="translate(717,610)"/>
<path d="M0 0 C6.14536937 -0.33532639 10.32600874 0.46970423 15.875 3.0625 C16.57189941 3.37977051 17.26879883 3.69704102 17.98681641 4.02392578 C23.8052031 6.75175806 29.00521543 9.9396139 34 14 C35.26070312 15.01707031 35.26070312 15.01707031 36.546875 16.0546875 C47.7523804 25.59634513 59.9113993 41.9803356 61.1953125 57.3359375 C61.13020833 59.22395833 61.06510417 61.11197917 61 63 C58.86573234 59.79859851 58.28280852 57.46607599 57.375 53.75 C52.32671215 35.85989961 41.15636857 19.93728984 24.7109375 10.71655273 C22.32882348 9.50805244 19.92599588 8.36759361 17.5 7.25 C16.69691406 6.86457031 15.89382813 6.47914063 15.06640625 6.08203125 C10.10090996 3.75621532 5.360722 2.15575199 0 1 C0 0.67 0 0.34 0 0 Z " fill="#CE6749" transform="translate(606,132)"/>
<path d="M0 0 C0.66 0.33 1.32 0.66 2 1 C2.02313799 10.87462302 2.04092255 20.74923963 2.05181217 30.6238842 C2.0570378 35.20873851 2.06412967 39.79357431 2.07543945 44.37841797 C2.08627967 48.80041817 2.09227925 53.22240054 2.09487724 57.64441299 C2.09672944 59.33416144 2.10034614 61.02390887 2.10573006 62.71364975 C2.11295551 65.07458378 2.1139903 67.43544347 2.11352539 69.79638672 C2.11712067 70.49985229 2.12071594 71.20331787 2.12442017 71.92810059 C2.11405216 76.77189568 2.11405216 76.77189568 1 79 C0.34 78.67 -0.32 78.34 -1 78 C-1.02326692 69.30661273 -1.04098778 60.61323633 -1.05181217 51.9198246 C-1.05700979 47.8822481 -1.06405014 43.84469306 -1.07543945 39.80712891 C-1.08638003 35.90380012 -1.09230029 32.00049184 -1.09487724 28.0971489 C-1.0967115 26.61497042 -1.10029295 25.13279296 -1.10573006 23.65062332 C-1.13365541 15.71572571 -1.04073302 7.87965662 0 0 Z " fill="#C75F44" transform="translate(393,347)"/>
<path d="M0 0 C0.99 0.495 0.99 0.495 2 1 C-16.2897907 15.08713019 -34.83178779 27.07174916 -57.1875 33.5625 C-58.04794922 33.81402832 -58.90839844 34.06555664 -59.79492188 34.32470703 C-65.01969158 35.74528065 -69.58885406 36.24340795 -75 36 C-75 35.67 -75 35.34 -75 35 C-73.91283691 34.72119995 -73.91283691 34.72119995 -72.80371094 34.43676758 C-69.4500429 33.57114136 -66.10008239 32.69189663 -62.75 31.8125 C-61.04070313 31.37454102 -61.04070313 31.37454102 -59.296875 30.92773438 C-38.87612649 25.5324798 -21.94936411 15.36191599 -4.84667969 3.29345703 C-3.24682149 2.17287946 -1.62521391 1.08347594 0 0 Z " fill="#CE6548" transform="translate(616,812)"/>
<path d="M0 0 C0.33 0 0.66 0 1 0 C1.36964876 8.24419425 0.35827901 15.66586049 -1.5 23.6875 C-1.76482178 24.85144287 -2.02964355 26.01538574 -2.30249023 27.21459961 C-4.20435237 35.28371823 -6.45813485 43.19286895 -9.0625 51.0625 C-9.37832031 52.01793701 -9.69414063 52.97337402 -10.01953125 53.95776367 C-15.8724082 70.9362041 -15.8724082 70.9362041 -20 73 C-18.37315674 68.04175479 -16.69183778 63.11327119 -14.9140625 58.20703125 C-9.90518032 44.28525321 -5.83537408 30.52029409 -3 16 C-2.83773926 15.17564453 -2.67547852 14.35128906 -2.50830078 13.50195312 C-1.63112001 9.00832533 -0.79458149 4.50908844 0 0 Z " fill="#CD6648" transform="translate(886,668)"/>
<path d="M0 0 C6.41287655 5.45776728 6.41287655 5.45776728 8.94140625 7.79296875 C24.97934297 22.55273974 43.06601746 32.5020664 63 41 C63 41.33 63 41.66 63 42 C55.46434544 41.18788685 49.71709953 38.35096839 43 35 C41.91976562 34.47148438 40.83953125 33.94296875 39.7265625 33.3984375 C25.04817576 25.89931013 11.638663 14.638663 0 3 C0 2.01 0 1.02 0 0 Z " fill="#CE6648" transform="translate(409,800)"/>
<path d="M0 0 C1.79202867 0.28943418 3.58360035 0.58169779 5.375 0.875 C6.37273438 1.03742187 7.37046875 1.19984375 8.3984375 1.3671875 C10.33029287 1.70662413 12.26119755 2.05915844 14.17419434 2.49243164 C20.32382499 3.86193317 26.09617253 4.26831276 32.3828125 4.1953125 C33.79323318 4.19106766 33.79323318 4.19106766 35.23214722 4.18673706 C38.19656827 4.17565978 41.16067231 4.15057951 44.125 4.125 C46.15103726 4.11495407 48.17707932 4.10583106 50.203125 4.09765625 C55.13553635 4.07576144 60.06771468 4.04131957 65 4 C64.67 4.66 64.34 5.32 64 6 C61.22820739 6.49020786 58.54516939 6.85131161 55.75 7.125 C54.93023682 7.2084668 54.11047363 7.29193359 53.26586914 7.37792969 C35.82035997 9.04996871 17.62542751 7.9776818 1 2 C0.67 1.34 0.34 0.68 0 0 Z " fill="#CF6C50" transform="translate(700,820)"/>
<path d="M0 0 C0.66 0.33 1.32 0.66 2 1 C2 23.77 2 46.54 2 70 C-3.02270684 64.97729316 -1.12711705 52.77041529 -1.13867188 46.00073242 C-1.13416016 44.82486572 -1.12964844 43.64899902 -1.125 42.4375 C-1.12306641 41.19911377 -1.12113281 39.96072754 -1.11914062 38.68481445 C-1.06031671 25.77868318 -0.58634033 12.89169026 0 0 Z " fill="#CC6448" transform="translate(708,347)"/>
<path d="M0 0 C23.25082871 1.62215084 45.25504457 20.24571197 60 37 C60 37.66 60 38.32 60 39 C57.11981292 37.70323698 55.15192518 36.36646859 53.00390625 34.05859375 C52.45234863 33.47932129 51.90079102 32.90004883 51.33251953 32.30322266 C50.74841309 31.68753418 50.16430664 31.0718457 49.5625 30.4375 C36.66635005 17.25873158 20.90333471 7.89947998 3.16015625 2.7890625 C1 2 1 2 0 0 Z " fill="#D0684B" transform="translate(521,695)"/>
<path d="M0 0 C0.495 1.485 0.495 1.485 1 3 C-16.23627445 16.91483178 -40.44469558 35.84747486 -64 34 C-60.97972428 32.27743866 -57.91973508 31.38495862 -54.5690918 30.50463867 C-33.62823079 24.9330409 -16.25979249 14.06875663 0 0 Z " fill="#CC6548" transform="translate(830,790)"/>
<path d="M0 0 C1.23105469 -0.00386719 2.46210938 -0.00773438 3.73046875 -0.01171875 C4.92027344 -0.01042969 6.11007812 -0.00914062 7.3359375 -0.0078125 C8.40118652 -0.00668457 9.46643555 -0.00555664 10.56396484 -0.00439453 C13.65847216 0.12641492 16.58402647 0.5514356 19.625 1.125 C19.625 1.455 19.625 1.785 19.625 2.125 C12.68459909 3.45335566 5.79098294 3.15183196 -1.25 3.0625 C-15.22757824 2.97378108 -28.26956367 4.06422653 -41.9921875 6.75 C-45.49519862 7.30129355 -48.83632082 7.25853506 -52.375 7.125 C-49.39472091 5.13814727 -47.90855981 4.68414675 -44.47265625 4.08984375 C-43.49876953 3.92033203 -42.52488281 3.75082031 -41.52148438 3.57617188 C-39.99491211 3.3219043 -39.99491211 3.3219043 -38.4375 3.0625 C-37.45458984 2.88912109 -36.47167969 2.71574219 -35.45898438 2.53710938 C-23.62746609 0.51747152 -11.99084994 -0.0383912 0 0 Z " fill="#D16D50" transform="translate(490.375,690.875)"/>
<path d="M0 0 C0.33 0 0.66 0 1 0 C1.33 39.93 1.66 79.86 2 121 C0.515 121.495 0.515 121.495 -1 122 C-0.67 81.74 -0.34 41.48 0 0 Z " fill="#D8866C" transform="translate(673,474)"/>
<path d="M0 0 C3.81936528 1.55603771 6.26044438 3.95604931 9 7 C9 7.66 9 8.32 9 9 C-1.71822717 9.02318642 -12.43644835 9.04094723 -23.15469551 9.05181217 C-28.1317852 9.0570272 -33.1088577 9.06409981 -38.0859375 9.07543945 C-42.89050337 9.08631734 -47.69505274 9.09228724 -52.49962997 9.09487724 C-54.33120865 9.09672265 -56.16278643 9.10032625 -57.99435806 9.10573006 C-60.56282747 9.11300551 -63.13122895 9.11398819 -65.69970703 9.11352539 C-66.83151649 9.1189183 -66.83151649 9.1189183 -67.9861908 9.12442017 C-72.09712297 9.11642276 -75.96701953 8.80116455 -80 8 C-80 7.67 -80 7.34 -80 7 C-51.95 6.67 -23.9 6.34 5 6 C3.35 4.02 1.7 2.04 0 0 Z " fill="#C05133" transform="translate(370,802)"/>
<path d="M0 0 C3.79420612 1.26473537 4.13412469 2.47993244 6.125 5.875 C14.9247956 20.1700266 26.44859259 33.04279142 42 40 C42 40.66 42 41.32 42 42 C27.15674401 39.89830004 14.88832155 23.17370753 6.37646484 11.91357422 C0 3.04895353 0 3.04895353 0 0 Z " fill="#CF674A" transform="translate(442,725)"/>
<path d="M0 0 C2.19749517 2.71310857 3.51119007 5.07857262 4.625 8.375 C10.44359585 23.3971543 21.71483262 36.86401084 34 47 C33.34 47.66 32.68 48.32 32 49 C25.52224644 43.40341145 19.79931939 37.91773275 14.65625 31.03125 C12.9837064 28.77657444 12.9837064 28.77657444 10 27 C10 26.01 10 25.02 10 24 C8.81751969 21.75275016 8.81751969 21.75275016 7.25 19.375 C-0.81152825 6.28934395 -0.81152825 6.28934395 0 0 Z " fill="#CD6548" transform="translate(239,234)"/>
<path d="M0 0 C0.66 0 1.32 0 2 0 C-0.09878572 8.1852643 -5.84600278 16.23526164 -12 22 C-12.66 22 -13.32 22 -14 22 C-14.33 22.99 -14.66 23.98 -15 25 C-15.66 25 -16.32 25 -17 25 C-17 25.66 -17 26.32 -17 27 C-18.3894043 28.18920898 -18.3894043 28.18920898 -20.32421875 29.49609375 C-21.02353516 29.97240234 -21.72285156 30.44871094 -22.44335938 30.93945312 C-23.18392578 31.43380859 -23.92449219 31.92816406 -24.6875 32.4375 C-25.40873047 32.92798828 -26.12996094 33.41847656 -26.87304688 33.92382812 C-28.90504888 35.29890893 -30.94897613 36.65350625 -33 38 C-33.95519531 38.63035156 -34.91039062 39.26070313 -35.89453125 39.91015625 C-36.93673828 40.44962891 -36.93673828 40.44962891 -38 41 C-38.66 40.67 -39.32 40.34 -40 40 C-37.17907465 36.77460374 -33.57460365 34.71908614 -30 32.4375 C-16.83677661 23.82949282 -7.30461007 13.96279447 0 0 Z " fill="#CF674A" transform="translate(617,225)"/>
<path d="M0 0 C3.44388651 3.85715289 4.88358602 8.4923166 6.6875 13.25 C10.72890983 23.64760888 15.57987613 33.43768558 20.73046875 43.3203125 C22 46 22 46 22 48 C21.34 48 20.68 48 20 48 C19.67 47.34 19.34 46.68 19 46 C18.01 46.495 18.01 46.495 17 47 C16 44 16 44 16 41 C15.17661782 38.89539972 15.17661782 38.89539972 14.0234375 36.640625 C13.60239746 35.77888672 13.18135742 34.91714844 12.74755859 34.02929688 C12.29461426 33.11212891 11.84166992 32.19496094 11.375 31.25 C8.21681443 24.72973039 5.10333761 18.21353055 2.375 11.5 C1.90835937 10.3553125 1.44171875 9.210625 0.9609375 8.03125 C0.04434271 5.13987782 -0.21301379 3.00461555 0 0 Z " fill="#CD6447" transform="translate(362,719)"/>
<path d="M0 0 C2.41096514 3.77717872 3.39499995 6.5233339 3 11 C1.17900629 8.26850943 -0.36551598 5.51431203 -1.90234375 2.62109375 C-3.06543034 0.68340523 -3.06543034 0.68340523 -6 -1 C-10.17007051 -1.77031498 -14.21079663 -1.80877274 -18.1171875 -0.04296875 C-24.16655769 4.17215466 -28.54743775 10.20754634 -33 16 C-33.66 15.67 -34.32 15.34 -35 15 C-29.6549402 6.31427782 -23.59038067 -1.00985004 -13.9375 -4.8125 C-8.26518709 -5.36143351 -4.33310234 -3.56277303 0 0 Z " fill="#CE674A" transform="translate(884,530)"/>
<path d="M0 0 C5.10666448 -0.21951084 8.94695302 0.38794662 13.74609375 2.1171875 C14.66830467 2.44301315 14.66830467 2.44301315 15.60914612 2.77542114 C17.55577305 3.4650268 19.49671869 4.1691294 21.4375 4.875 C32.57094019 8.9236185 32.57094019 8.9236185 44 12 C44 12.66 44 13.32 44 14 C44.66 14.33 45.32 14.66 46 15 C39.04035142 13.77860164 32.48443683 11.9983417 25.8125 9.6875 C23.98178571 9.06506041 22.15105642 8.44266492 20.3203125 7.8203125 C19.42602539 7.51383789 18.53173828 7.20736328 17.61035156 6.89160156 C13.80992101 5.59351212 9.99906969 4.32742004 6.1875 3.0625 C4.125 2.375 2.0625 1.6875 0 1 C0 0.67 0 0.34 0 0 Z " fill="#D16A4D" transform="translate(357,593)"/>
<path d="M0 0 C5.65676574 0.65776346 11.09231755 1.9244951 16.62109375 3.28125 C24.21052581 4.89564942 31.76792884 5.25301421 39.5 5.5625 C40.51320313 5.60568359 41.52640625 5.64886719 42.5703125 5.69335938 C45.0467679 5.79849192 47.52330749 5.90063837 50 6 C50 6.33 50 6.66 50 7 C35.42345742 9.0105576 14.44145488 10.3251373 1.72265625 1.40234375 C1.15417969 0.93957031 0.58570313 0.47679687 0 0 Z " fill="#CE6649" transform="translate(486,768)"/>
<path d="M0 0 C11.86995212 2.17262517 24.64020257 18.02513591 32 27 C32.825 27.928125 33.65 28.85625 34.5 29.8125 C34.995 30.534375 35.49 31.25625 36 32 C35.67 32.99 35.34 33.98 35 35 C33.64508116 33.50067938 32.29111322 32.00049946 30.9375 30.5 C30.10863281 29.5821875 29.27976562 28.664375 28.42578125 27.71875 C26.45277885 25.50746229 24.53363959 23.26621927 22.625 21 C16.37336406 13.83455185 9.11825433 7.54457671 1.36328125 2.05859375 C0.91339844 1.70925781 0.46351563 1.35992188 0 1 C0 0.67 0 0.34 0 0 Z " fill="#D06548" transform="translate(588,654)"/>
<path d="M0 0 C0.66 0 1.32 0 2 0 C-2.40701684 10.63011204 -16.11762321 17.77483715 -25.36376953 23.88696289 C-26.68333719 24.7845918 -27.95435559 25.75334972 -29.20703125 26.7421875 C-32.2178386 28.85434429 -35.43552521 29.22769713 -39 30 C-36.20731104 26.73151959 -32.54788814 24.86402244 -28.875 22.75 C-18.16311014 16.43971377 -8.80138844 8.80138844 0 0 Z " fill="#CF6547" transform="translate(639,272)"/>
<path d="M0 0 C0.52980469 0.23332031 1.05960938 0.46664062 1.60546875 0.70703125 C-7.78250647 6.30096959 -17.18495132 11.1261608 -27.3605957 15.14257812 C-28.52014771 15.60567383 -28.52014771 15.60567383 -29.703125 16.078125 C-30.39204834 16.3455249 -31.08097168 16.6129248 -31.79077148 16.88842773 C-33.5922598 17.60804379 -33.5922598 17.60804379 -34.39453125 19.70703125 C-36.37453125 19.70703125 -38.35453125 19.70703125 -40.39453125 19.70703125 C-40.39453125 19.04703125 -40.39453125 18.38703125 -40.39453125 17.70703125 C-39.4672522 17.31547852 -39.4672522 17.31547852 -38.52124023 16.91601562 C-27.13257856 12.08785725 -15.95320522 7.2457822 -5.2578125 1.0078125 C-2.39453125 -0.29296875 -2.39453125 -0.29296875 0 0 Z " fill="#CE6749" transform="translate(823.39453125,564.29296875)"/>
<path d="M0 0 C0.78629627 2.28228507 1.14686196 3.56066642 0.37011719 5.88427734 C0.01594727 6.5283252 -0.33822266 7.17237305 -0.703125 7.8359375 C-1.30048462 8.92817627 -1.30048462 8.92817627 -1.90991211 10.04248047 C-2.35214111 10.81221191 -2.79437012 11.58194336 -3.25 12.375 C-3.69802979 13.16922363 -4.14605957 13.96344727 -4.60766602 14.78173828 C-9.04784422 22.445902 -14.34745869 29.20942625 -20 36 C-21.01039933 37.32547009 -22.01566187 38.65506275 -23 40 C-23.99 39.67 -24.98 39.34 -26 39 C-25.39414062 38.319375 -24.78828125 37.63875 -24.1640625 36.9375 C-14.42132847 25.66590617 -6.87863667 13.19803459 0 0 Z " fill="#CC6346" transform="translate(864,743)"/>
<path d="M0 0 C0.90556641 -0.01224609 1.81113281 -0.02449219 2.74414062 -0.03710938 C4.04061523 -0.04000977 4.04061523 -0.04000977 5.36328125 -0.04296875 C6.5375769 -0.04913208 6.5375769 -0.04913208 7.7355957 -0.05541992 C9.6875 0.1875 9.6875 0.1875 11.6875 2.1875 C10.3871582 2.26266846 10.3871582 2.26266846 9.06054688 2.33935547 C5.80982414 2.53090661 2.55960639 2.72928443 -0.69042969 2.93212891 C-2.0906576 3.01815303 -3.49105015 3.10154293 -4.89160156 3.18212891 C-12.23772074 3.60654806 -19.21031365 4.17521387 -26.3125 6.1875 C-27.6325 6.1875 -28.9525 6.1875 -30.3125 6.1875 C-30.3125 5.5275 -30.3125 4.8675 -30.3125 4.1875 C-28.29257005 3.7045393 -26.27150646 3.22631888 -24.25 2.75 C-23.12464844 2.48316406 -21.99929688 2.21632812 -20.83984375 1.94140625 C-13.83356134 0.44393947 -7.13718634 0.00519068 0 0 Z " fill="#D06C4E" transform="translate(588.3125,128.8125)"/>
<path d="M0 0 C0.66 0 1.32 0 2 0 C0.66087953 3.78301531 -1.02727683 6.54085843 -3.5 9.6875 C-7.26111085 14.7414927 -10.43050427 20.00048682 -13.5 25.5 C-13.94537109 26.28979248 -14.39074219 27.07958496 -14.84960938 27.89331055 C-15.26017578 28.64008057 -15.67074219 29.38685059 -16.09375 30.15625 C-16.64579102 31.15881836 -16.64579102 31.15881836 -17.20898438 32.18164062 C-18.19945309 34.12800228 -18.19945309 34.12800228 -18 37 C-18.99 36.67 -19.98 36.34 -21 36 C-16.2536493 23.74620036 -9.8111419 13.46721575 -2 3 C-1.34 2.01 -0.68 1.02 0 0 Z " fill="#D06547" transform="translate(697,701)"/>
<path d="M0 0 C0 0.99 0 1.98 0 3 C-2.1328125 4.4375 -2.1328125 4.4375 -5.125 6 C-15.69296739 11.91556044 -25.61156288 19.30614829 -33 29 C-33.99 28.67 -34.98 28.34 -36 28 C-25.07960906 16.49020265 -14.2113579 7.30764915 0 0 Z " fill="#CE6547" transform="translate(735,671)"/>
<path d="M0 0 C1 3 1 3 0.13891602 4.93847656 C-0.31813721 5.66518555 -0.77519043 6.39189453 -1.24609375 7.140625 C-2.0026123 8.36604004 -2.0026123 8.36604004 -2.77441406 9.61621094 C-3.32323242 10.48536133 -3.87205078 11.35451172 -4.4375 12.25 C-9.63675113 20.67468414 -14.46734357 29.201314 -19 38 C-19.66 38 -20.32 38 -21 38 C-20.05683763 33.74877432 -18.15696272 30.13408126 -16.125 26.3125 C-15.73513916 25.57588135 -15.34527832 24.8392627 -14.94360352 24.08032227 C-10.44641553 15.74327512 -5.26666137 7.86553726 0 0 Z " fill="#CE6647" transform="translate(525,220)"/>
<path d="M0 0 C6.37675351 6.20440882 6.37675351 6.20440882 8 9 C7.48473721 13.06925483 5.45535677 14.58851705 2.27734375 17.06640625 C1.64957031 17.53949219 1.02179687 18.01257813 0.375 18.5 C-0.22957031 18.97308594 -0.83414063 19.44617188 -1.45703125 19.93359375 C-5.46091018 23.01547071 -9.56428406 25.58259183 -14 28 C-14 27.01 -14 26.02 -14 25 C-12.34765625 23.67578125 -12.34765625 23.67578125 -10.0625 22.3125 C-4.87969274 19.04650876 -0.47328617 15.16660698 4 11 C3.45164428 8.44987969 3.0418199 7.05520226 1.4375 4.9375 C0 3 0 3 0 0 Z " fill="#D1694C" transform="translate(582,735)"/>
<path d="M0 0 C-3.72581245 1.24193748 -4.79216534 0.54831788 -8.375 -0.875 C-19.58075898 -5.2893899 -31.19985223 -4.52259971 -43 -3 C-32.63721966 -13.36278034 -10.90968025 -6.06093347 0 0 Z " fill="#CE6548" transform="translate(342,184)"/>
<path d="M0 0 C4.09864714 1.36621571 5.64458498 4.17580929 8.0625 7.5625 C8.77744629 8.55286255 8.77744629 8.55286255 9.50683594 9.56323242 C13.0653659 14.55326727 16.46141326 19.64100369 19.75 24.8125 C20.192229 25.49965088 20.63445801 26.18680176 21.09008789 26.89477539 C22.12576388 28.55734649 23.07249093 30.27474803 24 32 C23.67 32.66 23.34 33.32 23 34 C19.78166692 30.95928166 17.70111896 27.39415998 15.4375 23.625 C11.66182862 17.43210733 7.61276754 11.62378892 3.04858398 5.98681641 C0 2.19004964 0 2.19004964 0 0 Z " fill="#CE6547" transform="translate(365,206)"/>
<path d="M0 0 C0.66 0 1.32 0 2 0 C3.57336286 2.41148116 5.04774382 4.82943105 6.5 7.3125 C10.43165948 13.85461876 14.61043831 19.30557322 19.96875 24.765625 C21.81628092 26.79790901 22.94005127 28.48838235 24 31 C16.00698672 27.64113824 10.75948873 18.91682668 5.9375 12 C5.54344971 11.43627686 5.14939941 10.87255371 4.7434082 10.29174805 C2 6.2579742 2 6.2579742 2 4 C1.34 4 0.68 4 0 4 C0 2.68 0 1.36 0 0 Z " fill="#CD6446" transform="translate(384,768)"/>
<path d="M0 0 C0.99 0.33 1.98 0.66 3 1 C2.3709375 1.53367188 1.741875 2.06734375 1.09375 2.6171875 C-8.48212742 10.95281574 -15.3052251 19.65359242 -21 31 C-22.09343807 28.28239076 -22.08307049 27.21008173 -20.98828125 24.44140625 C-15.6838266 15.32862519 -8.88045344 5.92030229 0 0 Z " fill="#CE694B" transform="translate(264,145)"/>
<path d="M0 0 C0.33 0.66 0.66 1.32 1 2 C-2.99337161 12.7094966 -9.75715688 22.2406866 -17 31 C-17.33 30.01 -17.66 29.02 -18 28 C-16.41015625 25.35546875 -16.41015625 25.35546875 -14.0625 22.1875 C-9.75817615 16.25202811 -6.08610265 10.10883546 -2.53125 3.703125 C-1 1 -1 1 0 0 Z " fill="#D0684A" transform="translate(813,695)"/>
<path d="M0 0 C0.66 0 1.32 0 2 0 C2.28834178 4.12574136 2.5730288 8.25171471 2.85449219 12.37792969 C2.95051991 13.77838768 3.04750506 15.17878039 3.14550781 16.57910156 C4.14642567 30.898355 4.14642567 30.898355 4 38 C3.67 38 3.34 38 3 38 C-1.07447911 25.77656267 -0.11211046 12.71830907 0 0 Z " fill="#CF6448" transform="translate(340,601)"/>
<path d="M0 0 C0.66 0 1.32 0 2 0 C2.53625 0.845625 3.0725 1.69125 3.625 2.5625 C8.30780141 9.90875352 15.20592605 14.65570678 23.66015625 16.6171875 C26.10161638 17.11852812 28.54341564 17.57985982 31 18 C31 18.33 31 18.66 31 19 C20.97873776 19.64653305 14.16756533 17.16725359 6.5 10.625 C2.82914764 7.33749615 1.26524813 4.77218588 0 0 Z " fill="#CC6548" transform="translate(154,454)"/>
<path d="M0 0 C4.87545788 0.57303069 8.41604625 2.74377062 12.5625 5.1875 C19.26357052 9.05391869 26.03088872 12.63423603 33 16 C32.67 16.66 32.34 17.32 32 18 C28.34852194 16.3035549 24.70497712 14.59067562 21.0625 12.875 C20.04091797 12.400625 19.01933594 11.92625 17.96679688 11.4375 C11.65301881 8.45207139 5.53060856 5.30945159 0 1 C0 0.67 0 0.34 0 0 Z " fill="#CD6548" transform="translate(313,255)"/>
<path d="M0 0 C6.64780142 0.74921554 10.61069573 5.27704929 15 10 C18.49912392 15.2942474 20.13675238 20.37604745 20.0625 26.6875 C20.05347656 27.68136719 20.04445313 28.67523438 20.03515625 29.69921875 C20.02355469 30.45847656 20.01195312 31.21773437 20 32 C19.67 32 19.34 32 19 32 C18.95875 30.7625 18.9175 29.525 18.875 28.25 C18.06162108 20.90635029 14.49508177 13.30186552 9.4375 7.875 C7.01390064 6.0106928 4.90879523 4.91419279 2 4 C2 3.34 2 2.68 2 2 C1.34 2 0.68 2 0 2 C0 1.34 0 0.68 0 0 Z " fill="#CE6547" transform="translate(602,180)"/>
<path d="M0 0 C3.81802366 0.64482758 7.16402353 1.75365504 10.74609375 3.21484375 C11.83083984 3.65376953 12.91558594 4.09269531 14.03320312 4.54492188 C15.15662109 5.00447266 16.28003906 5.46402344 17.4375 5.9375 C19.66472072 6.84403141 21.89256623 7.74902963 24.12109375 8.65234375 C25.1052124 9.05445068 26.08933105 9.45655762 27.10327148 9.87084961 C30.04067801 11.01585637 33.00134845 12.02807315 36 13 C36 13.33 36 13.66 36 14 C31.24573442 14.27089451 27.98719094 13.46840708 23.61328125 11.62890625 C22.42798828 11.13712891 21.24269531 10.64535156 20.02148438 10.13867188 C18.78501338 9.61361757 17.54868666 9.08822339 16.3125 8.5625 C15.06486912 8.04002115 13.81682532 7.51852718 12.56835938 6.99804688 C10.2847006 6.04496506 8.00298845 5.08719615 5.72387695 4.12329102 C3.84256666 3.3474634 1.93057329 2.64352443 0 2 C0 1.34 0 0.68 0 0 Z " fill="#CE6648" transform="translate(663,806)"/>
<path d="M0 0 C0.33 0 0.66 0 1 0 C1.05534912 0.71019287 1.11069824 1.42038574 1.16772461 2.15209961 C1.42280682 5.41401979 1.68013822 8.67575892 1.9375 11.9375 C2.02451172 13.05447266 2.11152344 14.17144531 2.20117188 15.32226562 C2.69537842 21.56391121 3.26804273 27.78166031 4 34 C3.34 34 2.68 34 2 34 C-4.22257552 8.44515103 -4.22257552 8.44515103 0 0 Z " fill="#CE6A4D" transform="translate(235,199)"/>
<path d="M0 0 C1.06320672 2.09273722 2.08446849 4.18886774 3.04296875 6.33203125 C7.78016573 16.59865269 13.70664929 21.50572011 24 26 C24 26.33 24 26.66 24 27 C16.64373134 26.69348881 12.36922083 23.38439751 7.265625 18.2578125 C3.11827659 13.63824125 0.12137072 9.50832815 -0.1875 3.125 C-0.125625 2.09375 -0.06375 1.0625 0 0 Z " fill="#C96447" transform="translate(185,781)"/>
<path d="M0 0 C0.99 0.33 1.98 0.66 3 1 C-4.64392875 9.153524 -13.46629091 16.01652457 -24 20 C-24.66 19.67 -25.32 19.34 -26 19 C-24.9275 18.34 -23.855 17.68 -22.75 17 C-10.54543306 9.53963954 -10.54543306 9.53963954 0 0 Z " fill="#D26B4D" transform="translate(789,729)"/>
<path d="M0 0 C-3.50621444 2.3374763 -6.89608929 3.13234455 -10.9375 4.0625 C-11.691521 4.2387793 -12.44554199 4.41505859 -13.22241211 4.59667969 C-19.45145368 5.99515735 -25.61568519 6.75397631 -32 7 C-31.01 6.67 -30.02 6.34 -29 6 C-29 5.34 -29 4.68 -29 4 C-25.85721216 3.31842063 -22.71039147 2.65756942 -19.5625 2 C-18.24475586 1.71382813 -18.24475586 1.71382813 -16.90039062 1.421875 C-11.14514613 0.23259938 -5.87632109 -0.19129428 0 0 Z " fill="#D06A4D" transform="translate(520,287)"/>
<path d="M0 0 C0 0.66 0 1.32 0 2 C-0.55872803 2.01981934 -1.11745605 2.03963867 -1.69311523 2.06005859 C-4.27497418 2.1565219 -6.85615392 2.26569812 -9.4375 2.375 C-10.31599609 2.4059375 -11.19449219 2.436875 -12.09960938 2.46875 C-17.27125418 2.69775272 -22.08182938 3.29961504 -27.10351562 4.57226562 C-29.4319942 5.09743227 -31.62263702 5.15337826 -34 5 C-34 4.34 -34 3.68 -34 3 C-22.51957562 0.5860935 -11.72587479 -0.39624358 0 0 Z " fill="#CF6C4F" transform="translate(323,129)"/>
<path d="M0 0 C11.05694276 -0.1139891 21.97636372 0.08949317 33 1 C29.8388893 3.10740713 29.04632054 3.25551258 25.4296875 3.265625 C24.5325 3.26820313 23.6353125 3.27078125 22.7109375 3.2734375 C21.30714844 3.26183594 21.30714844 3.26183594 19.875 3.25 C18.50601563 3.26160156 18.50601563 3.26160156 17.109375 3.2734375 C11.1142 3.25635723 5.80603923 2.49603465 0 1 C0 0.67 0 0.34 0 0 Z " fill="#CF694C" transform="translate(714,752)"/>
<path d="M0 0 C4.02847361 1.81636467 7.5492286 4.33373757 11.1875 6.8125 C16.64844188 10.49911666 22.13472531 13.97993986 28 17 C27.34 17.33 26.68 17.66 26 18 C16.59054154 14.66748346 7.27488978 8.81801265 0 2 C0 1.34 0 0.68 0 0 Z " fill="#CE674A" transform="translate(275,284)"/>
<path d="M0 0 C3.43109425 3.08573247 5.35184557 6.21344244 7.4375 10.3125 C9.42236973 14.13219531 11.37565587 17.71115958 14 21.125 C14.66 22.07375 15.32 23.0225 16 24 C15.67 24.99 15.34 25.98 15 27 C0 7.55844156 0 7.55844156 0 0 Z " fill="#CD6648" transform="translate(353,774)"/>
<path d="M0 0 C1.07308977 3.19803754 1.00630212 4.74175105 -0.4765625 7.7578125 C-0.8154248 8.46164062 -1.15428711 9.16546875 -1.50341797 9.890625 C-1.87354004 10.62796875 -2.24366211 11.3653125 -2.625 12.125 C-2.99383301 12.88039063 -3.36266602 13.63578125 -3.74267578 14.4140625 C-4.48024433 15.92080507 -5.22283254 17.42510202 -5.97070312 18.92675781 C-6.85660821 20.71117574 -7.71961982 22.50692666 -8.578125 24.3046875 C-11.73616412 30.86808206 -11.73616412 30.86808206 -14 32 C-13.28520175 28.59705873 -12.02207752 25.6523214 -10.56640625 22.5 C-10.08236328 21.448125 -9.59832031 20.39625 -9.09960938 19.3125 C-8.59236328 18.219375 -8.08511719 17.12625 -7.5625 16 C-7.05912109 14.906875 -6.55574219 13.81375 -6.03710938 12.6875 C-2.0389591 4.02218625 -2.0389591 4.02218625 0 0 Z " fill="#CE6547" transform="translate(502,260)"/>
<path d="M0 0 C0.66 0 1.32 0 2 0 C0.70648734 2.72476047 -0.75958894 5.10576122 -2.5 7.5625 C-5.5883003 12.44019782 -6.29634906 17.3462465 -7 23 C-7.11085938 23.81855469 -7.22171875 24.63710937 -7.3359375 25.48046875 C-7.57659061 27.3178878 -7.7915453 29.15865013 -8 31 C-8.33 31 -8.66 31 -9 31 C-9.75821677 13.83481476 -9.75821677 13.83481476 -5 6 C-4.67 5.34 -4.34 4.68 -4 4 C-3.34 4 -2.68 4 -2 4 C-1.34 2.68 -0.68 1.36 0 0 Z " fill="#CE6547" transform="translate(291,185)"/>
<path d="M0 0 C0.66 0 1.32 0 2 0 C2.0292067 3.54164915 2.04686814 7.08326697 2.0625 10.625 C2.07087891 11.62402344 2.07925781 12.62304688 2.08789062 13.65234375 C2.1041087 18.55020275 2.04318537 23.18656199 1 28 C0.34 28 -0.32 28 -1 28 C-0.67 18.76 -0.34 9.52 0 0 Z " fill="#CD6447" transform="translate(667,197)"/>
<path d="M0 0 C0 0.66 0 1.32 0 2 C-1.64155769 3.151762 -3.34112397 4.22134461 -5.0625 5.25 C-10.99221665 8.9189646 -15.93839321 12.84468381 -20.75 17.875 C-23 20 -23 20 -26 20 C-7.08270677 0 -7.08270677 0 0 0 Z " fill="#CE6345" transform="translate(564,183)"/>
<path d="M0 0 C4.12664277 0.44427071 8.25089744 0.90778141 12.375 1.375 C14.1384375 1.56449219 14.1384375 1.56449219 15.9375 1.7578125 C17.05898438 1.88671875 18.18046875 2.015625 19.3359375 2.1484375 C20.37282715 2.26364746 21.4097168 2.37885742 22.47802734 2.49755859 C25 3 25 3 27 5 C17.17747938 5.44723112 8.5176733 4.21157554 -1 2 C-0.67 1.34 -0.34 0.68 0 0 Z " fill="#CF694C" transform="translate(394,569)"/>
<path d="M0 0 C2.7055833 1.35279165 2.66929896 2.54362401 3.625 5.375 C5.69547114 10.88832352 8.82424512 15.08052129 12.48828125 19.65234375 C12.98714844 20.42707031 13.48601562 21.20179688 14 22 C13.67 22.99 13.34 23.98 13 25 C-0.52270995 9.22909758 -0.52270995 9.22909758 0 0 Z " fill="#CE6547" transform="translate(283,217)"/>
<path d="M0 0 C9.36477423 1.50758676 18.68285855 3.22643247 28 5 C28 5.33 28 5.66 28 6 C18.4582073 6.63967325 9.97309481 5.2478573 1 2 C0.67 1.34 0.34 0.68 0 0 Z " fill="#CD6447" transform="translate(700,820)"/>
<path d="M0 0 C0.66 0.33 1.32 0.66 2 1 C2 8.26 2 15.52 2 23 C1.34 23.33 0.68 23.66 0 24 C-1.28162626 15.88303369 -0.6976874 8.14684214 0 0 Z " fill="#CB684C" transform="translate(393,347)"/>
<path d="M0 0 C8.82227535 0.16337547 14.63985939 4.56171659 20.6875 10.75 C21.120625 11.4925 21.55375 12.235 22 13 C21.67 13.99 21.34 14.98 21 16 C20.5875 15.48050781 20.175 14.96101563 19.75 14.42578125 C14.16991961 7.68733596 8.53303404 3.34658436 0 1 C0 0.67 0 0.34 0 0 Z " fill="#CD674A" transform="translate(724,304)"/>
<path d="M0 0 C17.72824384 1.11522575 17.72824384 1.11522575 22.81640625 5.6015625 C23.20699219 6.06304687 23.59757812 6.52453125 24 7 C18.20140805 6.43189471 13.02313406 5.26320265 7.5 3.4375 C6.77296875 3.20353516 6.0459375 2.96957031 5.296875 2.72851562 C3.52919739 2.15867219 1.76429031 1.58024596 0 1 C0 0.67 0 0.34 0 0 Z " fill="#CF694C" transform="translate(386,286)"/>
<path d="M0 0 C6.17129762 -0.31238289 10.71385439 0.55611408 16.4375 2.8125 C17.15615234 3.07353516 17.87480469 3.33457031 18.61523438 3.60351562 C20.45027336 4.30530107 22.23165534 5.14394622 24 6 C24.33 6.99 24.66 7.98 25 9 C23.6875 8.5625 22.375 8.125 21.0625 7.6875 C20.24136719 7.41421875 19.42023438 7.1409375 18.57421875 6.859375 C16.92993254 6.31044789 15.28659985 5.7586507 13.64453125 5.203125 C9.12458997 3.67832553 4.59775736 2.27172012 0 1 C0 0.67 0 0.34 0 0 Z " fill="#CE694B" transform="translate(332,132)"/>
<path d="M0 0 C0.33 0 0.66 0 1 0 C1.02895976 3.12498063 1.04678483 6.2499269 1.0625 9.375 C1.07087891 10.26445312 1.07925781 11.15390625 1.08789062 12.0703125 C1.09111328 12.92109375 1.09433594 13.771875 1.09765625 14.6484375 C1.10289307 15.43395996 1.10812988 16.21948242 1.11352539 17.02880859 C1 19 1 19 0 21 C-0.66 20.67 -1.32 20.34 -2 20 C-2.3690205 6.3667426 -2.3690205 6.3667426 0 0 Z " fill="#CD6A4F" transform="translate(394,473)"/>
<path d="M0 0 C7.83113802 0.46986828 17.89025795 2.43431749 23.91796875 7.6640625 C24.27503906 8.10492188 24.63210938 8.54578125 25 9 C16.0860322 7.78350557 8.21688079 4.48395745 0 1 C0 0.67 0 0.34 0 0 Z " fill="#CE674B" transform="translate(350,274)"/>
<path d="M0 0 C0.66 0 1.32 0 2 0 C3.15149172 2.72690077 4.29632922 5.45628304 5.4375 8.1875 C5.76298828 8.95642578 6.08847656 9.72535156 6.42382812 10.51757812 C8.00843574 14.32390364 9.41484439 17.88742747 10 22 C7.74167306 19.93142504 6.39933877 18.11407378 5.17578125 15.3125 C4.71655273 14.26449219 4.71655273 14.26449219 4.24804688 13.1953125 C3.78495117 12.10863281 3.78495117 12.10863281 3.3125 11 C2.99216797 10.27554688 2.67183594 9.55109375 2.34179688 8.8046875 C1.01112267 5.72909936 0 3.38596407 0 0 Z " fill="#CE6649" transform="translate(432,702)"/>
<path d="M0 0 C0.33 0 0.66 0 1 0 C1.02483101 4.44742458 1.04292183 8.89481178 1.05493164 13.34228516 C1.05994162 14.85336002 1.06675144 16.36443009 1.07543945 17.87548828 C1.08765176 20.05502512 1.09326178 22.23449753 1.09765625 24.4140625 C1.10289307 25.7232666 1.10812988 27.0324707 1.11352539 28.38134766 C1.00972117 31.69013513 0.63432368 34.75595018 0 38 C-0.33 38 -0.66 38 -1 38 C-1.19401633 36.18818595 -1.38004375 34.37551468 -1.5625 32.5625 C-1.66691406 31.55316406 -1.77132812 30.54382813 -1.87890625 29.50390625 C-1.91886719 28.67761719 -1.95882812 27.85132813 -2 27 C-1.67 26.67 -1.34 26.34 -1 26 C-0.84193469 24.07521187 -0.748865 22.1450079 -0.68359375 20.21484375 C-0.64169922 19.04501953 -0.59980469 17.87519531 -0.55664062 16.66992188 C-0.49766602 14.82237305 -0.49766602 14.82237305 -0.4375 12.9375 C-0.39431641 11.70193359 -0.35113281 10.46636719 -0.30664062 9.19335938 C-0.20015802 6.12902665 -0.09814576 3.06460927 0 0 Z " fill="#CA6045" transform="translate(672,560)"/>
<path d="M0 0 C6.07881858 3.76307817 11.12335047 7.78223768 16 13 C16.804375 13.804375 17.60875 14.60875 18.4375 15.4375 C18.953125 15.953125 19.46875 16.46875 20 17 C17 17 17 17 15.24609375 15.46875 C14.64925781 14.8190625 14.05242187 14.169375 13.4375 13.5 C12.32863909 12.29813785 11.18876939 11.12288578 10 10 C9.34 10 8.68 10 8 10 C6.29006566 8.3777546 4.62652316 6.70586575 3 5 C2.401875 4.443125 1.80375 3.88625 1.1875 3.3125 C0 2 0 2 0 0 Z " fill="#CB5F40" transform="translate(344,186)"/>
<path d="M0 0 C1.95803507 -0.05389087 3.91648909 -0.09274217 5.875 -0.125 C7.51082031 -0.15980469 7.51082031 -0.15980469 9.1796875 -0.1953125 C12 0 12 0 14 2 C14.125 5.625 14.125 5.625 14 9 C12 6 12 6 12 3 C10.783125 3.020625 9.56625 3.04125 8.3125 3.0625 C5.08022678 3.06824116 2.15065259 2.78766315 -1 2 C-0.67 1.34 -0.34 0.68 0 0 Z " fill="#D06E52" transform="translate(339,764)"/>
<path d="M0 0 C0.99 0.33 1.98 0.66 3 1 C-7.37357631 9.44646925 -7.37357631 9.44646925 -13 13 C-13.66 12.67 -14.32 12.34 -15 12 C-12.02725356 8.88669818 -8.88992791 6.25685792 -5.4375 3.6875 C-4.01244141 2.61048828 -4.01244141 2.61048828 -2.55859375 1.51171875 C-1.71425781 1.01285156 -0.86992188 0.51398437 0 0 Z " fill="#D0694B" transform="translate(842,550)"/>
<path d="M0 0 C0.99 0.33 1.98 0.66 3 1 C2.09507812 1.63615234 2.09507812 1.63615234 1.171875 2.28515625 C-4.06519813 6.12849218 -7.10618673 9.21237347 -10 15 C-11.75 16.9375 -11.75 16.9375 -13 18 C-12.53703838 11.67285791 -9.86584043 7.55788828 -5.21875 3.41015625 C-3.375 2 -3.375 2 0 0 Z " fill="#CC6547" transform="translate(166,307)"/>
<path d="M0 0 C0 0.66 0 1.32 0 2 C-0.71285156 2.24234375 -1.42570312 2.4846875 -2.16015625 2.734375 C-7.8326686 4.71937259 -12.84618222 6.92964047 -18 10 C-18.66 10 -19.32 10 -20 10 C-20 9.34 -20 8.68 -20 8 C-17.42141033 6.65673469 -14.83782579 5.32525335 -12.25 4 C-11.52039063 3.6184375 -10.79078125 3.236875 -10.0390625 2.84375 C-8.97558594 2.30234375 -8.97558594 2.30234375 -7.890625 1.75 C-7.24125977 1.41484375 -6.59189453 1.0796875 -5.92285156 0.734375 C-4 0 -4 0 0 0 Z " fill="#CD6A4C" transform="translate(288,134)"/>
<path d="M0 0 C4.50284396 0.6273046 8.24223673 2.39620149 12.25 4.4375 C12.88679687 4.75009766 13.52359375 5.06269531 14.1796875 5.38476562 C18.87326759 7.74653518 18.87326759 7.74653518 20 10 C13.16583467 8.24508907 6.85061298 6.0381224 1 2 C0.67 1.34 0.34 0.68 0 0 Z " fill="#CF6548" transform="translate(681,739)"/>
<path d="M0 0 C0.33 0.99 0.66 1.98 1 3 C-0.546875 5.55859375 -0.546875 5.55859375 -2.75 8.4375 C-3.46671875 9.38496094 -4.1834375 10.33242188 -4.921875 11.30859375 C-5.95054687 12.64083984 -5.95054687 12.64083984 -7 14 C-8.00177216 15.33200237 -9.00252704 16.66477512 -10 18 C-10.99 17.67 -11.98 17.34 -13 17 C-12.39671875 16.27554687 -11.7934375 15.55109375 -11.171875 14.8046875 C-5.24723449 7.64907525 -5.24723449 7.64907525 0 0 Z " fill="#CF6547" transform="translate(654,253)"/>
<path d="M0 0 C4.20831868 -0.02914348 8.41661122 -0.04684712 12.625 -0.0625 C14.40970703 -0.07506836 14.40970703 -0.07506836 16.23046875 -0.08789062 C17.38417969 -0.09111328 18.53789062 -0.09433594 19.7265625 -0.09765625 C21.31331787 -0.10551147 21.31331787 -0.10551147 22.93212891 -0.11352539 C26.03362346 0.00124422 28.95347657 0.42303718 32 1 C32 1.33 32 1.66 32 2 C27.58946477 2.77832975 24.34151404 2.92580959 20 2 C18.381374 1.86173037 16.75958568 1.75688451 15.13671875 1.68359375 C13.80737305 1.62075195 13.80737305 1.62075195 12.45117188 1.55664062 C11.53916016 1.51732422 10.62714844 1.47800781 9.6875 1.4375 C8.75615234 1.39431641 7.82480469 1.35113281 6.86523438 1.30664062 C4.57695546 1.20102775 2.28857628 1.09892248 0 1 C0 0.67 0 0.34 0 0 Z " fill="#C85B3D" transform="translate(478,691)"/>
<path d="M0 0 C3.76668299 5.65002448 4.36215976 13.3000445 4 20 C3.34 20 2.68 20 2 20 C0.3879491 13.23514355 -0.26618595 6.95041086 0 0 Z " fill="#CD6447" transform="translate(346,654)"/>
<path d="M0 0 C0.33 0 0.66 0 1 0 C1 8.25 1 16.5 1 25 C0.67 25 0.34 25 0 25 C0 22.03 0 19.06 0 16 C-0.66 15.67 -1.32 15.34 -2 15 C-2 12.36 -2 9.72 -2 7 C-1.34 7 -0.68 7 0 7 C0 4.69 0 2.38 0 0 Z " fill="#C96448" transform="translate(394,518)"/>
<path d="M0 0 C0.5775 0.226875 1.155 0.45375 1.75 0.6875 C1.05519531 1.05488281 0.36039063 1.42226563 -0.35546875 1.80078125 C-3.89934279 4.11075583 -6.62960564 6.84945041 -9.5625 9.875 C-10.11228516 10.43380859 -10.66207031 10.99261719 -11.22851562 11.56835938 C-12.57363696 12.93687412 -13.91246643 14.31156833 -15.25 15.6875 C-15.25 11.62395091 -13.72015238 10.63579419 -11 7.6875 C-10.21109375 6.82125 -9.4221875 5.955 -8.609375 5.0625 C-3.14609764 -0.43695801 -3.14609764 -0.43695801 0 0 Z " fill="#D5846B" transform="translate(868.25,529.3125)"/>
<path d="M0 0 C0.309375 0.639375 0.61875 1.27875 0.9375 1.9375 C1.8345163 3.93610821 1.8345163 3.93610821 3 5 C3.08685603 6.56172745 3.10702219 8.12729344 3.09765625 9.69140625 C3.09282227 11.10776367 3.09282227 11.10776367 3.08789062 12.55273438 C3.07951172 13.54595703 3.07113281 14.53917969 3.0625 15.5625 C3.05798828 16.55958984 3.05347656 17.55667969 3.04882812 18.58398438 C3.03700007 21.05604849 3.02051849 23.52799518 3 26 C2.67 26 2.34 26 2 26 C1.661671 22.79217315 1.33023854 19.58366902 1 16.375 C0.90460937 15.47136719 0.80921875 14.56773437 0.7109375 13.63671875 C0.24420109 9.06936961 -0.12222799 4.59882812 0 0 Z " fill="#C6573B" transform="translate(887,542)"/>
<path d="M0 0 C-2.45404224 1.19716659 -4.91251679 2.3829346 -7.375 3.5625 C-8.42300781 4.07586914 -8.42300781 4.07586914 -9.4921875 4.59960938 C-11.30052216 5.46030712 -13.14851956 6.23652436 -15 7 C-15.66 6.67 -16.32 6.34 -17 6 C-15.49631918 2.99263836 -13.23800706 2.59983611 -10.1875 1.3125 C-9.12917969 0.85488281 -8.07085938 0.39726562 -6.98046875 -0.07421875 C-4.01633704 -0.99492545 -2.82503443 -1.12864571 0 0 Z " fill="#D1694C" transform="translate(575,268)"/>
<path d="M0 0 C0.33 0.66 0.66 1.32 1 2 C0.30585946 3.71882421 -0.3971935 5.43524285 -1.16796875 7.12109375 C-2.30360517 9.68560604 -3.13234955 12.33507361 -4 15 C-4.33 15.66 -4.66 16.32 -5 17 C-5.66 16.67 -6.32 16.34 -7 16 C-2.89320388 2.89320388 -2.89320388 2.89320388 0 0 Z " fill="#D06849" transform="translate(459,249)"/>
<path d="M0 0 C6.40593286 1.10690752 12.71363856 2.33945169 19 4 C19 4.33 19 4.66 19 5 C12.55148102 5.40303244 7.89929508 4.69090653 2 2 C1.34 1.34 0.68 0.68 0 0 Z " fill="#CB6244" transform="translate(473,842)"/>
<path d="M0 0 C5.75098214 -0.10414253 11.35450392 -0.20116938 17 1 C17.33 1.66 17.66 2.32 18 3 C11.64012196 3.20190089 6.14778871 2.6277833 0 1 C0 0.67 0 0.34 0 0 Z " fill="#D0684B" transform="translate(435,614)"/>
<path d="M0 0 C0.33 0 0.66 0 1 0 C1.34548714 6.33393082 0.29342747 11.10261508 -2 17 C-2.33 17 -2.66 17 -3 17 C-2.22095672 5.47835991 -2.22095672 5.47835991 0 0 Z " fill="#CD6547" transform="translate(820,668)"/>
<path d="M0 0 C3.9057324 0.59316029 6.21803586 2.48621905 9.25 4.9375 C10.14203125 5.64777344 11.0340625 6.35804688 11.953125 7.08984375 C12.62859375 7.72019531 13.3040625 8.35054687 14 9 C14 9.66 14 10.32 14 11 C9.96407129 9.63079505 7.32473622 7.80419512 4.1875 4.9375 C3.39730469 4.22464844 2.60710937 3.51179687 1.79296875 2.77734375 C1.20128906 2.19082031 0.60960937 1.60429687 0 1 C0 0.67 0 0.34 0 0 Z " fill="#CD6548" transform="translate(298,243)"/>
<path d="M0 0 C0.66 0 1.32 0 2 0 C0.6744419 3.62276315 -0.94346955 6.63505348 -3.125 9.8125 C-3.66382813 10.60269531 -4.20265625 11.39289062 -4.7578125 12.20703125 C-5.37269531 13.09455078 -5.37269531 13.09455078 -6 14 C-6.70703125 12.328125 -6.70703125 12.328125 -7 10 C-5.63671875 7.421875 -5.63671875 7.421875 -3.6875 4.75 C-2.73423828 3.41195312 -2.73423828 3.41195312 -1.76171875 2.046875 C-1.18035156 1.37140625 -0.59898437 0.6959375 0 0 Z " fill="#D1684A" transform="translate(634,675)"/>
<path d="M0 0 C-4.81384901 3.81788025 -10.10647769 3.70067925 -16 4 C-15.67 3.01 -15.34 2.02 -15 1 C-12.87630763 0.63807496 -10.7509887 0.28568253 -8.625 -0.0625 C-6.84996094 -0.35833984 -6.84996094 -0.35833984 -5.0390625 -0.66015625 C-2 -1 -2 -1 0 0 Z " fill="#CD6649" transform="translate(732,470)"/>
<path d="M0 0 C0.33 0 0.66 0 1 0 C1.22278071 2.56197812 1.42862563 5.12347556 1.625 7.6875 C1.72167969 8.7693457 1.72167969 8.7693457 1.8203125 9.87304688 C2.13102342 14.12590254 1.97020088 17.18743571 0 21 C-0.33 21 -0.66 21 -1 21 C-0.67 14.07 -0.34 7.14 0 0 Z " fill="#D47356" transform="translate(620,203)"/>
<path d="M0 0 C0.66 0 1.32 0 2 0 C2.90413673 3.83724172 3.10576898 7.37502274 3.0625 11.3125 C3.05347656 12.38113281 3.04445313 13.44976562 3.03515625 14.55078125 C3.02355469 15.35902344 3.01195312 16.16726563 3 17 C0.34932646 14.34932646 0.61670957 12.75528503 0.375 9.0625 C0.30023437 8.00160156 0.22546875 6.94070313 0.1484375 5.84765625 C0.04693721 3.90045323 0 1.94984664 0 0 Z " fill="#D06B4F" transform="translate(707,400)"/>
<path d="M0 0 C0.99 0 1.98 0 3 0 C3 4.62 3 9.24 3 14 C-0.06188727 9.91748364 -0.37243503 9.43502071 -0.1875 4.75 C-0.16042969 3.85796875 -0.13335937 2.9659375 -0.10546875 2.046875 C-0.07066406 1.37140625 -0.03585938 0.6959375 0 0 Z " fill="#CC694D" transform="translate(149,376)"/>
<path d="M0 0 C0.33 0 0.66 0 1 0 C1.20852314 6.40629424 1.1583195 11.92972642 -1 18 C-1.33 18 -1.66 18 -2 18 C-2.23268915 11.71739294 -1.40454548 6.11980533 0 0 Z " fill="#C95F42" transform="translate(886,668)"/>
<path d="M0 0 C10.55808656 -0.3690205 10.55808656 -0.3690205 15 2 C15 2.33 15 2.66 15 3 C9.5814234 3.22577402 5.22512279 2.46670113 0 1 C0 0.67 0 0.34 0 0 Z " fill="#CF694B" transform="translate(509,624)"/>
<path d="M0 0 C-3.01447835 2.57075841 -5.35979771 3.52207066 -9.25 4.1875 C-10.58804688 4.42533203 -10.58804688 4.42533203 -11.953125 4.66796875 C-12.96632813 4.83232422 -12.96632813 4.83232422 -14 5 C-14 4.34 -14 3.68 -14 3 C-9.07015675 0.96006486 -5.42039575 -0.40652968 0 0 Z " fill="#D06648" transform="translate(758,593)"/>
<path d="M0 0 C-3 2 -3 2 -6.5 3.4375 C-9.45670934 4.75745953 -11.01602981 5.54921329 -13 8 C-12.68762196 5.11050316 -12.35661121 3.41366901 -10.4375 1.1875 C-6.8580787 -0.55632063 -3.95820158 -0.19791008 0 0 Z " fill="#CF6547" transform="translate(355,592)"/>
<path d="M0 0 C-4.22385456 3.44165927 -7.50060584 5 -13 5 C-13 4.34 -13 3.68 -13 3 C-4.57142857 -0.42857143 -4.57142857 -0.42857143 0 0 Z " fill="#CF684A" transform="translate(557,275)"/>
<path d="M0 0 C-5.4465696 3.6310464 -10.74542962 3.14879864 -17 2 C-17 1.67 -17 1.34 -17 1 C-11.29014022 0.25983299 -5.75813575 -0.10469338 0 0 Z " fill="#D26F53" transform="translate(546,772)"/>
<path d="M0 0 C-3.3 2.31 -6.6 4.62 -10 7 C-10.33 6.01 -10.66 5.02 -11 4 C-9.73760288 3.13341385 -8.46472499 2.28207941 -7.1875 1.4375 C-6.47980469 0.96183594 -5.77210938 0.48617187 -5.04296875 -0.00390625 C-3 -1 -3 -1 0 0 Z " fill="#CD6548" transform="translate(579,756)"/>
<path d="M0 0 C-2.73704754 2.73704754 -5.26044774 3.16182449 -9 4 C-11.4375 3.625 -11.4375 3.625 -13 3 C-8.44573816 0.33409063 -5.26053037 -0.31563182 0 0 Z " fill="#CD6647" transform="translate(534,283)"/>
<path d="M0 0 C2.42130331 2.42130331 2.52840504 3.80111377 3.125 7.125 C3.29257812 8.03507813 3.46015625 8.94515625 3.6328125 9.8828125 C3.81457031 10.93082031 3.81457031 10.93082031 4 12 C3.34 12 2.68 12 2 12 C0.40861915 7.82262526 -0.21278058 4.46839215 0 0 Z " fill="#CA5F43" transform="translate(358,706)"/>
<path d="M0 0 C3.94876098 0.56410871 6.75634176 1.65735794 10 4 C10.33 4.99 10.66 5.98 11 7 C6.89188572 5.55007731 3.53144334 3.54592427 0 1 C0 0.67 0 0.34 0 0 Z " fill="#CF6649" transform="translate(574,645)"/>
<path d="M0 0 C0.99 0.66 1.98 1.32 3 2 C1.3767313 2.6708712 -0.24867578 3.33657029 -1.875 4 C-3.23238281 4.556875 -3.23238281 4.556875 -4.6171875 5.125 C-7 6 -7 6 -9 6 C-9 5.34 -9 4.68 -9 4 C-7.57086153 3.27494442 -6.13129342 2.57041565 -4.6875 1.875 C-3.88699219 1.48054687 -3.08648438 1.08609375 -2.26171875 0.6796875 C-1.51535156 0.45539062 -0.76898437 0.23109375 0 0 Z " fill="#D36C4E" transform="translate(697,585)"/>
<path d="M0 0 C3.3 0 6.6 0 10 0 C9.67 0.99 9.34 1.98 9 3 C6.03 3 3.06 3 0 3 C0 2.01 0 1.02 0 0 Z " fill="#C96246" transform="translate(280,808)"/>
<path d="M0 0 C3.32368224 1.10789408 3.61563093 1.48436217 5.25 4.375 C5.60578125 4.98085938 5.9615625 5.58671875 6.328125 6.2109375 C7 8 7 8 6 11 C4.9944239 9.54550599 3.99569565 8.08627557 3 6.625 C2.443125 5.81289063 1.88625 5.00078125 1.3125 4.1640625 C0 2 0 2 0 0 Z " fill="#CC6244" transform="translate(442,725)"/>
<path d="M0 0 C4.455 2.97 4.455 2.97 9 6 C8.67 7.32 8.34 8.64 8 10 C6.33333333 8.33333333 4.66666667 6.66666667 3 5 C2.401875 4.443125 1.80375 3.88625 1.1875 3.3125 C0 2 0 2 0 0 Z " fill="#CD6649" transform="translate(344,186)"/>
<path d="M0 0 C7.42857143 1 7.42857143 1 11 2 C11 2.66 11 3.32 11 4 C6.44262737 3.56179109 3.42346555 3.14958831 0 0 Z " fill="#CE674A" transform="translate(486,768)"/>
<path d="M0 0 C0.33 0.66 0.66 1.32 1 2 C0.0126546 3.67419438 -0.98812105 5.34051852 -2 7 C-2 7.99 -2 8.98 -2 10 C-2.99 9.67 -3.98 9.34 -5 9 C-4.690625 8.236875 -4.38125 7.47375 -4.0625 6.6875 C-3.32106407 4.81210323 -2.63771783 2.91315348 -2 1 C-1.34 0.67 -0.68 0.34 0 0 Z " fill="#D16C4E" transform="translate(681,728)"/>
<path d="M0 0 C3.76690636 1.73857216 6.21232537 3.90258375 9 7 C9 7.66 9 8.32 9 9 C5.51127585 7.83709195 4.90023136 6.86032391 2.8125 3.9375 C2.28269531 3.20402344 1.75289063 2.47054687 1.20703125 1.71484375 C0.80871094 1.14894531 0.41039062 0.58304688 0 0 Z " fill="#CC6347" transform="translate(370,802)"/>
<path d="M0 0 C0.66 0 1.32 0 2 0 C5.11450382 4.15267176 5.11450382 4.15267176 4.6875 7.3125 C4.460625 7.869375 4.23375 8.42625 4 9 C3.34 7.35 2.68 5.7 2 4 C1.34 4 0.68 4 0 4 C0 2.68 0 1.36 0 0 Z " fill="#D26E51" transform="translate(384,768)"/>
<path d="M0 0 C1.45922693 0.11409593 2.91740598 0.24165544 4.375 0.375 C5.59316406 0.47941406 5.59316406 0.47941406 6.8359375 0.5859375 C9 1 9 1 11 3 C4.6 3.36923077 4.6 3.36923077 1.5625 1.5 C1.046875 1.005 0.53125 0.51 0 0 Z " fill="#CF6649" transform="translate(702,749)"/>
<path d="M0 0 C-1.49097658 3.7952131 -3.75700849 5.61042731 -7 8 C-6.44414399 4.1090079 -4.34122117 0 0 0 Z " fill="#D2694B" transform="translate(641,272)"/>
<path d="M0 0 C0.6875 1.625 0.6875 1.625 1 4 C-0.4375 7.25 -0.4375 7.25 -2 10 C-2.66 10 -3.32 10 -4 10 C-2.99806563 6.20696275 -2.18975773 3.28463659 0 0 Z " fill="#CF6546" transform="translate(660,241)"/>
<path d="M0 0 C1.31611677 0.95336021 2.62778961 1.91285774 3.9375 2.875 C4.66839844 3.40867187 5.39929688 3.94234375 6.15234375 4.4921875 C8 6 8 6 9 8 C4.75153925 7.52794881 2.73180712 5.11122478 0 2 C0 1.34 0 0.68 0 0 Z " fill="#CB5F40" transform="translate(416,807)"/>
<path d="M0 0 C0 0.99 0 1.98 0 3 C-3.80504787 4.79682816 -4.70600835 5.07349791 -9 4 C-6.03 2.68 -3.06 1.36 0 0 Z " fill="#CF6345" transform="translate(746,666)"/>
<path d="M0 0 C0 3.90838866 -1.50567876 5.11594107 -4 8 C-4.99 7.67 -5.98 7.34 -7 7 C-4.69 4.69 -2.38 2.38 0 0 Z " fill="#D57355" transform="translate(850,542)"/>
<path d="M0 0 C2 4 2 4 3 7 C2.34 7 1.68 7 1 7 C1 9.31 1 11.62 1 14 C0.67 14 0.34 14 0 14 C0 9.38 0 4.76 0 0 Z " fill="#D47459" transform="translate(194,377)"/>
<path d="M0 0 C3.71162994 1.85581497 5.01775064 2.55714584 7 6 C6.67 6.99 6.34 7.98 6 9 C4.02 6.03 2.04 3.06 0 0 Z " fill="#CB5F42" transform="translate(402,179)"/>
<path d="M0 0 C0.33 0 0.66 0 1 0 C1 2.64 1 5.28 1 8 C-0.32 7.67 -1.64 7.34 -3 7 C-2.34 7 -1.68 7 -1 7 C-1.20625 6.401875 -1.4125 5.80375 -1.625 5.1875 C-2 3 -2 3 0 0 Z " fill="#CD684B" transform="translate(709,418)"/>
<path d="M0 0 C0.66 0.66 1.32 1.32 2 2 C0.02 4.97 0.02 4.97 -2 8 C-2.6875 6.25 -2.6875 6.25 -3 4 C-1.5625 1.75 -1.5625 1.75 0 0 Z " fill="#D16C4F" transform="translate(854,761)"/>
<path d="M0 0 C0.66 0.33 1.32 0.66 2 1 C1.45276317 4.37462715 0.9451 6.08235 -1 9 C-2.0326802 6.21176345 -2.04509293 5.1322726 -1.0625 2.25 C-0.711875 1.5075 -0.36125 0.765 0 0 Z " fill="#D16E50" transform="translate(873,721)"/>
<path d="M0 0 C1.65 0 3.3 0 5 0 C5 0.33 5 0.66 5 1 C3.35 1 1.7 1 0 1 C0 0.67 0 0.34 0 0 Z " fill="#DE8569" transform="translate(520,350)"/>
<path d="M0 0 C0.99 0.33 1.98 0.66 3 1 C2.01 1 1.02 1 0 1 C0 0.67 0 0.34 0 0 Z " fill="#DD856A" transform="translate(704,350)"/>
<path d="M0 0 C4 1 4 1 4 1 Z " fill="#DF8569" transform="translate(577,350)"/>
<path d="M0 0 C4 1 4 1 4 1 Z " fill="#E0876A" transform="translate(544,350)"/>
<path d="M0 0 C4 1 4 1 4 1 Z " fill="#D98168" transform="translate(314,180)"/>
<path d="M0 0 C0.66 0 1.32 0 2 0 C1.67 0.66 1.34 1.32 1 2 C0.67 1.34 0.34 0.68 0 0 Z " fill="#DB856B" transform="translate(364,734)"/>
<path d="M0 0 C0.66 0 1.32 0 2 0 C1.67 0.66 1.34 1.32 1 2 C0.67 1.34 0.34 0.68 0 0 Z " fill="#DC856A" transform="translate(435,701)"/>
<path d="" fill="#DD876A" transform="translate(0,0)"/>
<path d="M0 0 C3 1 3 1 3 1 Z " fill="#D9876B" transform="translate(792,576)"/>
<path d="M0 0 C3 1 3 1 3 1 Z " fill="#DE8569" transform="translate(618,350)"/>
<path d="M0 0 C3 1 3 1 3 1 Z " fill="#DF8669" transform="translate(584,350)"/>
<path d="M0 0 C3 1 3 1 3 1 Z " fill="#DF866A" transform="translate(218,350)"/>
<path d="M0 0 C3 1 3 1 3 1 Z " fill="#DF8669" transform="translate(210,350)"/>
<path d="" fill="#D48269" transform="translate(0,0)"/>
<path d="M0 0 C2 1 2 1 2 1 Z " fill="#D48167" transform="translate(473,845)"/>
<path d="M0 0 C2 1 2 1 2 1 Z " fill="#D98469" transform="translate(392,789)"/>
<path d="" fill="#DA846A" transform="translate(0,0)"/>
<path d="" fill="#DC866B" transform="translate(0,0)"/>
<path d="M0 0 C2 1 2 1 2 1 Z " fill="#DD8569" transform="translate(499,694)"/>
<path d="M0 0 C2 1 2 1 2 1 Z " fill="#DE866A" transform="translate(496,694)"/>
<path d="M0 0 C2 1 2 1 2 1 Z " fill="#DB8367" transform="translate(491,694)"/>
<path d="M0 0 C2 1 2 1 2 1 Z " fill="#DC8469" transform="translate(785,662)"/>
<path d="M0 0 C2 1 2 1 2 1 Z " fill="#DE8B6F" transform="translate(729,600)"/>
<path d="" fill="#DC846B" transform="translate(0,0)"/>
<path d="" fill="#DB856A" transform="translate(0,0)"/>
<path d="M0 0 C2 1 2 1 2 1 Z " fill="#DF866B" transform="translate(699,350)"/>
<path d="M0 0 C2 1 2 1 2 1 Z " fill="#DE866A" transform="translate(675,350)"/>
<path d="M0 0 C2 1 2 1 2 1 Z " fill="#DE8569" transform="translate(659,350)"/>
<path d="M0 0 C2 1 2 1 2 1 Z " fill="#DE8669" transform="translate(538,350)"/>
<path d="M0 0 C2 1 2 1 2 1 Z " fill="#E0876B" transform="translate(516,350)"/>
<path d="M0 0 C2 1 2 1 2 1 Z " fill="#DF866A" transform="translate(457,350)"/>
<path d="M0 0 C2 1 2 1 2 1 Z " fill="#DF8569" transform="translate(451,350)"/>
<path d="M0 0 C2 1 2 1 2 1 Z " fill="#DE8569" transform="translate(388,350)"/>
<path d="M0 0 C2 1 2 1 2 1 Z " fill="#DF8569" transform="translate(377,350)"/>
<path d="M0 0 C2 1 2 1 2 1 Z " fill="#DE866A" transform="translate(371,350)"/>
<path d="M0 0 C2 1 2 1 2 1 Z " fill="#DE8669" transform="translate(363,350)"/>
<path d="M0 0 C2 1 2 1 2 1 Z " fill="#DE8568" transform="translate(323,350)"/>
<path d="M0 0 C2 1 2 1 2 1 Z " fill="#DF8568" transform="translate(288,350)"/>
<path d="M0 0 C2 1 2 1 2 1 Z " fill="#DE866A" transform="translate(275,350)"/>
<path d="M0 0 C2 1 2 1 2 1 Z " fill="#DE856A" transform="translate(267,350)"/>
<path d="M0 0 C2 1 2 1 2 1 Z " fill="#DA866A" transform="translate(292,300)"/>
<path d="M0 0 C2 1 2 1 2 1 Z " fill="#DA866C" transform="translate(289,299)"/>
<path d="" fill="#DD856A" transform="translate(0,0)"/>
<path d="" fill="#D48167" transform="translate(0,0)"/>
<path d="M0 0 C2 1 2 1 2 1 Z " fill="#DC856B" transform="translate(608,187)"/>
<path d="" fill="#D27F66" transform="translate(0,0)"/>
<path d="" fill="#D58064" transform="translate(0,0)"/>
<path d="" fill="#D48167" transform="translate(0,0)"/>
<path d="" fill="#D68369" transform="translate(0,0)"/>
<path d="" fill="#D08068" transform="translate(0,0)"/>
<path d="" fill="#D68266" transform="translate(0,0)"/>
<path d="" fill="#DA8268" transform="translate(0,0)"/>
<path d="" fill="#D98269" transform="translate(0,0)"/>
<path d="" fill="#D07D64" transform="translate(0,0)"/>
<path d="" fill="#DA8369" transform="translate(0,0)"/>
<path d="" fill="#D98368" transform="translate(0,0)"/>
<path d="" fill="#DA8268" transform="translate(0,0)"/>
<path d="" fill="#D17E67" transform="translate(0,0)"/>
<path d="" fill="#CF7E64" transform="translate(0,0)"/>
<path d="" fill="#DD846A" transform="translate(0,0)"/>
<path d="" fill="#DC8569" transform="translate(0,0)"/>
<path d="" fill="#DA836A" transform="translate(0,0)"/>
<path d="" fill="#DB8669" transform="translate(0,0)"/>
<path d="" fill="#DA8469" transform="translate(0,0)"/>
<path d="" fill="#DD886C" transform="translate(0,0)"/>
<path d="" fill="#DC846B" transform="translate(0,0)"/>
<path d="" fill="#DC8469" transform="translate(0,0)"/>
<path d="" fill="#DB856A" transform="translate(0,0)"/>
<path d="" fill="#DC886C" transform="translate(0,0)"/>
<path d="" fill="#DD8668" transform="translate(0,0)"/>
<path d="" fill="#DB846A" transform="translate(0,0)"/>
<path d="" fill="#DB836A" transform="translate(0,0)"/>
<path d="" fill="#D28066" transform="translate(0,0)"/>
<path d="" fill="#DC886B" transform="translate(0,0)"/>
<path d="" fill="#DC876D" transform="translate(0,0)"/>
<path d="" fill="#DA856B" transform="translate(0,0)"/>
<path d="" fill="#DC866A" transform="translate(0,0)"/>
<path d="" fill="#DD876E" transform="translate(0,0)"/>
<path d="" fill="#DD886D" transform="translate(0,0)"/>
<path d="" fill="#DD876B" transform="translate(0,0)"/>
<path d="" fill="#DC866B" transform="translate(0,0)"/>
<path d="" fill="#DC876C" transform="translate(0,0)"/>
<path d="" fill="#DC876C" transform="translate(0,0)"/>
<path d="" fill="#DE846B" transform="translate(0,0)"/>
<path d="" fill="#DE866C" transform="translate(0,0)"/>
<path d="" fill="#D9886C" transform="translate(0,0)"/>
<path d="" fill="#DD8468" transform="translate(0,0)"/>
<path d="" fill="#D28369" transform="translate(0,0)"/>
<path d="" fill="#DD8469" transform="translate(0,0)"/>
<path d="" fill="#DB876D" transform="translate(0,0)"/>
<path d="" fill="#D9846A" transform="translate(0,0)"/>
<path d="" fill="#DD866C" transform="translate(0,0)"/>
<path d="" fill="#DA8369" transform="translate(0,0)"/>
<path d="" fill="#DD8469" transform="translate(0,0)"/>
<path d="" fill="#DC876C" transform="translate(0,0)"/>
<path d="" fill="#DD866C" transform="translate(0,0)"/>
<path d="" fill="#DB876C" transform="translate(0,0)"/>
<path d="" fill="#DC866B" transform="translate(0,0)"/>
<path d="" fill="#DD836B" transform="translate(0,0)"/>
<path d="" fill="#DE856A" transform="translate(0,0)"/>
<path d="" fill="#DF896D" transform="translate(0,0)"/>
<path d="" fill="#DE886D" transform="translate(0,0)"/>
<path d="" fill="#DC886C" transform="translate(0,0)"/>
<path d="" fill="#DF8A6E" transform="translate(0,0)"/>
<path d="" fill="#DE886D" transform="translate(0,0)"/>
<path d="" fill="#DD8A6D" transform="translate(0,0)"/>
<path d="" fill="#DB8669" transform="translate(0,0)"/>
<path d="" fill="#D98368" transform="translate(0,0)"/>
<path d="" fill="#DC8569" transform="translate(0,0)"/>
<path d="" fill="#DC8266" transform="translate(0,0)"/>
<path d="" fill="#DB8266" transform="translate(0,0)"/>
<path d="" fill="#DC8469" transform="translate(0,0)"/>
<path d="" fill="#DB866C" transform="translate(0,0)"/>
<path d="" fill="#DC866B" transform="translate(0,0)"/>
<path d="" fill="#DC856A" transform="translate(0,0)"/>
<path d="" fill="#DF866B" transform="translate(0,0)"/>
<path d="" fill="#DB866B" transform="translate(0,0)"/>
<path d="" fill="#DB876D" transform="translate(0,0)"/>
<path d="" fill="#DC866D" transform="translate(0,0)"/>
<path d="" fill="#DD866C" transform="translate(0,0)"/>
<path d="" fill="#DB886D" transform="translate(0,0)"/>
<path d="" fill="#DA876D" transform="translate(0,0)"/>
<path d="" fill="#DD8569" transform="translate(0,0)"/>
<path d="" fill="#DD826B" transform="translate(0,0)"/>
<path d="" fill="#DE856C" transform="translate(0,0)"/>
<path d="" fill="#DE8269" transform="translate(0,0)"/>
<path d="" fill="#DD8669" transform="translate(0,0)"/>
<path d="" fill="#D8856B" transform="translate(0,0)"/>
<path d="" fill="#DC856A" transform="translate(0,0)"/>
<path d="" fill="#DE856B" transform="translate(0,0)"/>
<path d="" fill="#DC8469" transform="translate(0,0)"/>
<path d="" fill="#D38167" transform="translate(0,0)"/>
<path d="" fill="#DE866C" transform="translate(0,0)"/>
<path d="" fill="#DF8569" transform="translate(0,0)"/>
<path d="" fill="#DF8669" transform="translate(0,0)"/>
<path d="" fill="#E1856A" transform="translate(0,0)"/>
<path d="" fill="#DE8769" transform="translate(0,0)"/>
<path d="" fill="#DE866A" transform="translate(0,0)"/>
<path d="" fill="#E08668" transform="translate(0,0)"/>
<path d="" fill="#E0856A" transform="translate(0,0)"/>
<path d="" fill="#DE8468" transform="translate(0,0)"/>
<path d="" fill="#DE8669" transform="translate(0,0)"/>
<path d="" fill="#DE856A" transform="translate(0,0)"/>
<path d="" fill="#E0876B" transform="translate(0,0)"/>
<path d="" fill="#DF876A" transform="translate(0,0)"/>
<path d="" fill="#DF876B" transform="translate(0,0)"/>
<path d="" fill="#E08669" transform="translate(0,0)"/>
<path d="" fill="#DF856A" transform="translate(0,0)"/>
<path d="" fill="#DF8668" transform="translate(0,0)"/>
<path d="" fill="#DE8569" transform="translate(0,0)"/>
<path d="" fill="#DF866B" transform="translate(0,0)"/>
<path d="" fill="#DF866A" transform="translate(0,0)"/>
<path d="" fill="#E1866A" transform="translate(0,0)"/>
<path d="" fill="#DD8568" transform="translate(0,0)"/>
<path d="" fill="#DE8568" transform="translate(0,0)"/>
<path d="" fill="#DF856A" transform="translate(0,0)"/>
<path d="" fill="#DF8668" transform="translate(0,0)"/>
<path d="" fill="#DF876B" transform="translate(0,0)"/>
<path d="" fill="#DF866B" transform="translate(0,0)"/>
<path d="" fill="#DF876B" transform="translate(0,0)"/>
<path d="" fill="#E0866B" transform="translate(0,0)"/>
<path d="" fill="#E1876B" transform="translate(0,0)"/>
<path d="" fill="#E08669" transform="translate(0,0)"/>
<path d="" fill="#E0866A" transform="translate(0,0)"/>
<path d="" fill="#E0886A" transform="translate(0,0)"/>
<path d="" fill="#DF856A" transform="translate(0,0)"/>
<path d="" fill="#D28066" transform="translate(0,0)"/>
<path d="" fill="#D2826A" transform="translate(0,0)"/>
<path d="" fill="#CD8167" transform="translate(0,0)"/>
<path d="" fill="#D4836B" transform="translate(0,0)"/>
<path d="" fill="#D9856B" transform="translate(0,0)"/>
<path d="" fill="#DB866C" transform="translate(0,0)"/>
<path d="" fill="#DC886D" transform="translate(0,0)"/>
<path d="" fill="#DB886D" transform="translate(0,0)"/>
<path d="" fill="#DC866C" transform="translate(0,0)"/>
<path d="" fill="#DD896D" transform="translate(0,0)"/>
<path d="" fill="#DC876D" transform="translate(0,0)"/>
<path d="" fill="#DB866D" transform="translate(0,0)"/>
<path d="" fill="#DD866A" transform="translate(0,0)"/>
<path d="" fill="#DC8B72" transform="translate(0,0)"/>
<path d="" fill="#DC886B" transform="translate(0,0)"/>
<path d="" fill="#DD866C" transform="translate(0,0)"/>
<path d="" fill="#DB876B" transform="translate(0,0)"/>
<path d="" fill="#DD876D" transform="translate(0,0)"/>
<path d="" fill="#DD886E" transform="translate(0,0)"/>
<path d="" fill="#D9856C" transform="translate(0,0)"/>
<path d="" fill="#D8846B" transform="translate(0,0)"/>
<path d="" fill="#DB866A" transform="translate(0,0)"/>
<path d="" fill="#DD866C" transform="translate(0,0)"/>
<path d="" fill="#DD856A" transform="translate(0,0)"/>
<path d="" fill="#DD876A" transform="translate(0,0)"/>
<path d="" fill="#D8866C" transform="translate(0,0)"/>
<path d="" fill="#DC876B" transform="translate(0,0)"/>
<path d="" fill="#DE876C" transform="translate(0,0)"/>
<path d="" fill="#D98269" transform="translate(0,0)"/>
<path d="" fill="#DB8369" transform="translate(0,0)"/>
<path d="" fill="#DE866C" transform="translate(0,0)"/>
<path d="" fill="#DB8468" transform="translate(0,0)"/>
<path d="" fill="#DD856A" transform="translate(0,0)"/>
<path d="" fill="#D78368" transform="translate(0,0)"/>
<path d="" fill="#D9856A" transform="translate(0,0)"/>
<path d="" fill="#D8856A" transform="translate(0,0)"/>
<path d="" fill="#DB886C" transform="translate(0,0)"/>
<path d="" fill="#DB876B" transform="translate(0,0)"/>
<path d="" fill="#D58469" transform="translate(0,0)"/>
<path d="" fill="#DC8469" transform="translate(0,0)"/>
<path d="" fill="#DA836A" transform="translate(0,0)"/>
<path d="" fill="#DB836A" transform="translate(0,0)"/>
<path d="" fill="#D88469" transform="translate(0,0)"/>
<path d="" fill="#DA866C" transform="translate(0,0)"/>
<path d="" fill="#DC856A" transform="translate(0,0)"/>
<path d="" fill="#DC856A" transform="translate(0,0)"/>
<path d="" fill="#DA8568" transform="translate(0,0)"/>
<path d="" fill="#D98368" transform="translate(0,0)"/>
<path d="" fill="#DB876B" transform="translate(0,0)"/>
<path d="" fill="#DC8369" transform="translate(0,0)"/>
<path d="" fill="#DA846A" transform="translate(0,0)"/>
<path d="" fill="#DE886D" transform="translate(0,0)"/>
<path d="" fill="#D48269" transform="translate(0,0)"/>
<path d="" fill="#D38168" transform="translate(0,0)"/>
<path d="" fill="#DC856A" transform="translate(0,0)"/>
<path d="" fill="#DB836A" transform="translate(0,0)"/>
<path d="" fill="#D98065" transform="translate(0,0)"/>
<path d="" fill="#DC866B" transform="translate(0,0)"/>
<path d="" fill="#D07F67" transform="translate(0,0)"/>
<path d="" fill="#DB846A" transform="translate(0,0)"/>
<path d="" fill="#DC8468" transform="translate(0,0)"/>
<path d="" fill="#D08169" transform="translate(0,0)"/>
<path d="" fill="#D98469" transform="translate(0,0)"/>
<path d="" fill="#D88367" transform="translate(0,0)"/>
<path d="" fill="#DD856A" transform="translate(0,0)"/>
<path d="" fill="#D68168" transform="translate(0,0)"/>
<path d="" fill="#D08168" transform="translate(0,0)"/>
<path d="" fill="#D8846A" transform="translate(0,0)"/>
<path d="" fill="#D68367" transform="translate(0,0)"/>
<path d="" fill="#D18168" transform="translate(0,0)"/>
<path d="" fill="#D18068" transform="translate(0,0)"/>
<path d="" fill="#D08168" transform="translate(0,0)"/>
<path d="" fill="#D38166" transform="translate(0,0)"/>
<path d="" fill="#D38268" transform="translate(0,0)"/>
<path d="" fill="#CF8269" transform="translate(0,0)"/>
<path d="" fill="#CE8268" transform="translate(0,0)"/>
<path d="" fill="#D38067" transform="translate(0,0)"/>
</svg>
